<?xml version="1.0" encoding="utf-8" ?>
<svg baseProfile="full" height="100%" version="1.1" viewBox="0,0,1000,300" width="100%" xmlns="http://www.w3.org/2000/svg" xmlns:ev="http://www.w3.org/2001/xml-events" xmlns:xlink="http://www.w3.org/1999/xlink"><defs /><rect fill="white" height="300" width="1000" x="0" y="0" /><path d="M0,0 M444.86309814453125,50.537841796875 L444.8822937011719,50.45316696166992 L444.9660339355469,50.51072311401367 L445.1040344238281,50.89032745361328 L445.2462158203125,51.770023345947266 L445.3132019042969,53.158416748046875 L445.25030517578125,54.959197998046875 L445.0859069824219,57.005828857421875 L444.86138916015625,59.123355865478516 L444.65618896484375,61.11790084838867 L444.5237731933594,62.813682556152344 L444.4988708496094,64.0953369140625 L444.5631408691406,64.89679718017578 L444.6700439453125,65.1729736328125 L444.70452880859375,64.8806381225586 L444.661865234375,63.98789596557617 L444.55633544921875,62.463077545166016 L444.4814147949219,60.43630599975586 L444.56085205078125,58.1092643737793 L444.88092041015625,55.69212341308594 L445.4529113769531,53.37146759033203 L446.3140869140625,51.29792404174805 L447.3996276855469,49.564456939697266 L448.6429443359375,48.30341720581055 L450.0115966796875,47.60908508300781 L451.4551086425781,47.51783752441406 L452.9491882324219,48.02466583251953 L454.4732666015625,49.073055267333984 L455.9093322753906,50.55864715576172 L457.09716796875,52.347930908203125 L457.9161071777344,54.285396575927734 L458.2641296386719,56.22319793701172 L458.1708068847656,58.049102783203125 L457.68743896484375,59.67219924926758 L456.8883056640625,61.034698486328125 L455.8119812011719,62.09718704223633 L454.4718322753906,62.80686569213867 L452.9383239746094,63.16269302368164 L451.322021484375,63.159461975097656 L449.98828125,62.966278076171875 L449.14697265625,62.744606018066406 M456.9023132324219,62.557674407958984 L457.61212158203125,62.38447952270508 L458.74871826171875,62.0239372253418 L460.16412353515625,61.4344367980957 L461.5650329589844,60.638336181640625 L462.88616943359375,59.66724395751953 L464.0406188964844,58.5877685546875 L465.0630187988281,57.475921630859375 L465.8326416015625,56.3841667175293 L466.292724609375,55.36793518066406 L466.39373779296875,54.470611572265625 L466.18756103515625,53.76475143432617 L465.66436767578125,53.333274841308594 L464.8933410644531,53.26531982421875 L463.8697204589844,53.616783142089844 L462.66326904296875,54.4178466796875 L461.3566589355469,55.60219955444336 L460.1987609863281,57.086639404296875 L459.35601806640625,58.72139358520508 L458.99737548828125,60.353511810302734 L459.21319580078125,61.82375717163086 L460.032470703125,63.012271881103516 L461.3865051269531,63.827735900878906 L463.2239990234375,64.27583312988281 L465.4435729980469,64.32673645019531 L467.8493957519531,64.01934051513672 L470.2393798828125,63.41539001464844 L472.11767578125,62.78339385986328 L473.254150390625,62.311500549316406 M477.7237854003906,56.72248077392578 L477.5334167480469,56.51987075805664 L477.18072509765625,56.2259521484375 L476.62591552734375,55.93553161621094 L475.8221740722656,55.800376892089844 L474.7176208496094,55.932945251464844 L473.33245849609375,56.39160919189453 L471.80218505859375,57.17002487182617 L470.37579345703125,58.203758239746094 L469.301513671875,59.37575912475586 L468.7174377441406,60.55704879760742 L468.6784973144531,61.647178649902344 L469.1322326660156,62.54740524291992 L470.0032958984375,63.16593933105469 L471.20867919921875,63.420066833496094 L472.65118408203125,63.248775482177734 L474.22198486328125,62.65011215209961 L475.7780456542969,61.671268463134766 L477.15045166015625,60.407142639160156 L478.24920654296875,58.992000579833984 L479.0511474609375,57.59888458251953 L479.5897216796875,56.398895263671875 L479.9608459472656,55.50376510620117 L480.212890625,54.95481872558594 L480.34051513671875,54.762550354003906 L480.3855285644531,54.921417236328125 L480.3916320800781,55.44807815551758 L480.388916015625,56.36018371582031 L480.45184326171875,57.594242095947266 L480.6309509277344,59.035400390625 L480.9420471191406,60.55095291137695 L481.4155578613281,61.99076461791992 L482.01019287109375,63.22991943359375 L482.64056396484375,64.19912719726562 L483.2928466796875,64.83097839355469 L483.9463195800781,65.0624771118164 L484.6158142089844,64.84011840820312 L485.3441162109375,64.15604400634766 L486.0804748535156,63.05839538574219 L486.75994873046875,61.68513488769531 L487.3520202636719,60.20655059814453 L487.7810363769531,58.767982482910156 L488.04010009765625,57.45713806152344 L488.184814453125,56.351322174072266 L488.28863525390625,55.45693588256836 L488.46435546875,54.76144027709961 L488.8086242675781,54.24436950683594 L489.19097900390625,53.910423278808594 L489.4992980957031,53.72784423828125 M506.60699462890625,62.268165588378906 L507.0413818359375,61.54351806640625 L507.80255126953125,60.30744171142578 L508.8462829589844,58.66197204589844 L510.00836181640625,56.86226272583008 L511.20257568359375,55.00230407714844 L512.33837890625,53.1392822265625 L513.3698120117188,51.297183990478516 L514.324951171875,49.55188751220703 L515.2190551757812,47.99433135986328 L516.032958984375,46.71538543701172 L516.7084350585938,45.78035354614258 L517.2089233398438,45.20835494995117 L517.5084838867188,45.0 L517.6755981445312,45.17823791503906 L517.7232055664062,45.791744232177734 L517.6396484375,46.89156723022461 L517.3912963867188,48.45738983154297 L517.0062255859375,50.402400970458984 L516.4865112304688,52.595951080322266 L515.934814453125,54.9387321472168 L515.405029296875,57.310203552246094 L514.9838256835938,59.570682525634766 L514.71923828125,61.55518341064453 L514.6111450195312,63.048927307128906 L514.5620727539062,63.90761947631836 L514.5093994140625,64.14525604248047 L514.4244995117188,64.00836944580078 L514.3385620117188,63.762996673583984 M508.9021301269531,55.77534866333008 L508.8927307128906,55.86945343017578 L509.09429931640625,56.01781463623047 L509.65069580078125,56.165931701660156 L510.73187255859375,56.18680953979492 L512.2744750976562,55.99311065673828 L514.1107177734375,55.57463073730469 L515.701904296875,55.11692428588867 L516.7509765625,54.7708740234375 M525.893798828125,53.95897674560547 M522.306396484375,53.206050872802734 L521.79052734375,53.34785461425781 L520.9952392578125,53.60033416748047 L520.0751342773438,53.95392990112305 L519.317626953125,54.36434555053711 L518.8201904296875,54.819679260253906 L518.6781616210938,55.310951232910156 L518.8897705078125,55.83982849121094 L519.4512939453125,56.41348648071289 L520.2896728515625,57.039268493652344 L521.3233642578125,57.726470947265625 L522.4234619140625,58.48198699951172 L523.496826171875,59.29273223876953 L524.4013061523438,60.114601135253906 L525.0321044921875,60.8974494934082 L525.2803344726562,61.58406448364258 L525.1105346679688,62.128753662109375 L524.5206298828125,62.495540618896484 L523.5880126953125,62.66845703125 L522.3809204101562,62.62457275390625 L521.0718383789062,62.38660430908203 L519.8450927734375,62.02805709838867 L518.948486328125,61.69337844848633 L518.4498901367188,61.469276428222656 M531.0067138671875,47.235992431640625 L530.9246215820312,47.40646743774414 L530.82421875,47.89103698730469 L530.7120971679688,48.813541412353516 L530.6287841796875,50.19580078125 L530.5569458007812,51.92790985107422 L530.4193115234375,53.874839782714844 L530.1993408203125,55.88486862182617 L529.9057006835938,57.8040657043457 L529.5562133789062,59.4857063293457 L529.2348022460938,60.82135772705078 L529.0138549804688,61.71843338012695 L528.906005859375,62.12936782836914 L528.9435424804688,62.054649353027344 L529.1480712890625,61.49768829345703 L529.5662231445312,60.496646881103516 L530.2418823242188,59.1721305847168 L531.220703125,57.6995735168457 L532.445556640625,56.27825164794922 L533.7630615234375,55.102317810058594 L535.0067138671875,54.28598403930664 L536.0697631835938,53.908329010009766 L536.901611328125,53.998451232910156 L537.5675048828125,54.55903625488281 L538.107177734375,55.5498161315918 L538.4891357421875,56.867645263671875 L538.707763671875,58.36524200439453 L538.7791137695312,59.89955139160156 L538.790771484375,61.2708740234375 L538.8775634765625,62.313899993896484 L539.102294921875,62.916900634765625 L539.3677978515625,63.13881301879883 L539.5886840820312,63.13158416748047 M546.2481689453125,46.515907287597656 L546.2337036132812,46.52898406982422 L546.2146606445312,46.720314025878906 L546.180908203125,47.2337646484375 L546.064208984375,48.15619659423828 L545.830322265625,49.45603942871094 L545.4766235351562,51.04840087890625 L545.0934448242188,52.83530807495117 L544.8244018554688,54.71807861328125 L544.8289794921875,56.58224105834961 L545.1495361328125,58.305118560791016 L545.807373046875,59.76719665527344 L546.7228393554688,60.88322830200195 L547.8060913085938,61.60116958618164 L548.9869384765625,61.88495635986328 L550.2273559570312,61.68965530395508 L551.4969482421875,61.01144790649414 L552.7815551757812,59.89822769165039 L553.98291015625,58.46556854248047 L554.9849853515625,56.890342712402344 L555.691650390625,55.37836456298828 L556.02978515625,54.08860778808594 L556.0096435546875,53.126399993896484 L555.6651000976562,52.554710388183594 L554.9987182617188,52.40502166748047 L554.03466796875,52.69386672973633 L552.8678588867188,53.43511199951172 L551.6514892578125,54.573970794677734 L550.6322021484375,55.996944427490234 L550.0377197265625,57.56218338012695 L550.0151977539062,59.1033935546875 L550.5965576171875,60.45289993286133 L551.7446899414062,61.4683837890625 L553.3422241210938,62.02550506591797 L555.2562255859375,62.060604095458984 L557.3251953125,61.59443664550781 L559.3502807617188,60.69541549682617 L561.145263671875,59.48245620727539 L562.5973510742188,58.09202575683594 L563.66162109375,56.65656661987305 L564.3703002929688,55.31614685058594 L564.7964477539062,54.193809509277344 L564.98583984375,53.3631477355957 L565.007080078125,52.88404083251953 L564.86669921875,52.79899215698242 L564.61376953125,53.1252555847168 L564.2818603515625,53.854530334472656 L563.9283447265625,54.8941764831543 L563.6461181640625,56.10183334350586 L563.5697631835938,57.330467224121094 L563.73193359375,58.44651794433594 L564.212646484375,59.343074798583984 L564.9857177734375,59.92365264892578 L565.9830322265625,60.08293533325195 L567.127197265625,59.796173095703125 L568.3526000976562,59.128170013427734 L569.5680541992188,58.21234893798828 L570.7236328125,57.21207046508789 L571.7254638671875,56.268898010253906 L572.4891357421875,55.45212173461914 L572.9527587890625,54.81696701049805 L573.1468505859375,54.40186309814453 L573.1389770507812,54.257568359375 L573.0257568359375,54.44760513305664 L572.8638916015625,55.031005859375 L572.6940307617188,56.00839614868164 L572.488525390625,57.35961151123047 L572.2396240234375,59.02709197998047 L571.8787231445312,60.96143341064453 L571.3565063476562,63.12129592895508 L570.6160278320312,65.44013214111328 L569.660888671875,67.82089233398438 L568.5047607421875,70.15970611572266 L567.205322265625,72.30799102783203 L565.805419921875,74.11265563964844 L564.3565063476562,75.44951629638672 L562.8670043945312,76.23222351074219 L561.3557739257812,76.4773178100586 L559.8433837890625,76.2706527709961 L558.3458862304688,75.70863342285156 L556.961669921875,74.77413177490234 L555.8259887695312,73.48532104492188 L555.03369140625,71.9030990600586 L554.6061401367188,70.48029327392578 L554.4622802734375,69.51164245605469 M585.9444580078125,50.190101623535156 L585.8904418945312,50.28226089477539 L585.8490600585938,50.388389587402344 L585.8308715820312,50.4748649597168 L585.846435546875,50.50804901123047 M584.2933349609375,56.621925354003906 L584.39794921875,56.581851959228516 L584.5647583007812,56.502235412597656 L584.7346801757812,56.412715911865234 L584.8485107421875,56.342960357666016 M590.962890625,53.61558532714844 L591.048828125,53.66353988647461 L591.2026977539062,53.7158203125 L591.369140625,53.75666046142578 L591.49267578125,53.77027893066406 " fill="none" stroke="black" stroke-linecap="round" stroke-width="1" /><path d="M0,0 M434.0273132324219,107.85697937011719 L434.06689453125,107.79340362548828 L434.14093017578125,107.86058807373047 L434.2101135253906,108.24089050292969 L434.2314147949219,109.13367462158203 L434.132080078125,110.61112976074219 L433.8828125,112.64742279052734 L433.5147399902344,115.1040267944336 L433.107421875,117.79303741455078 L432.7271423339844,120.48845672607422 L432.46173095703125,122.99288940429688 L432.3161315917969,125.1250991821289 L432.27239990234375,126.77294921875 L432.2772521972656,127.87828063964844 L432.2579345703125,128.42071533203125 L432.14117431640625,128.37307739257812 L431.945068359375,127.70454406738281 L431.72698974609375,126.36502838134766 L431.59619140625,124.4062728881836 L431.65557861328125,121.97607421875 L431.9079284667969,119.2703857421875 L432.2975158691406,116.48440551757812 L432.77996826171875,113.79944610595703 L433.3086853027344,111.32962799072266 L433.8907165527344,109.19820404052734 L434.5175476074219,107.5010986328125 L435.0906677246094,106.28479766845703 L435.5380859375,105.57182312011719 L435.8214416503906,105.4031982421875 L435.9560546875,105.80699157714844 L436.0125427246094,106.80876922607422 L436.0345458984375,108.34994506835938 L436.02362060546875,110.27388000488281 L436.01971435546875,112.34510040283203 L436.0754089355469,114.32874298095703 L436.2357482910156,116.02021789550781 L436.5592041015625,117.30764770507812 L437.0430603027344,118.11097717285156 L437.6546325683594,118.38634490966797 L438.41070556640625,118.1098403930664 L439.37335205078125,117.29856872558594 L440.5361022949219,116.01873016357422 L441.8892517089844,114.42256164550781 L443.32403564453125,112.67079162597656 L444.70416259765625,110.94739532470703 L445.93743896484375,109.42913055419922 L446.9818420410156,108.2206802368164 L447.77001953125,107.37181091308594 L448.2708435058594,106.9264144897461 L448.4893493652344,106.94204711914062 L448.4688720703125,107.53240203857422 L448.2569274902344,108.81570434570312 L447.9043884277344,110.79763793945312 L447.4107666015625,113.32333374023438 L446.7929992675781,116.1412582397461 L446.13824462890625,118.96998596191406 L445.57611083984375,121.58772277832031 L445.2203674316406,123.82144927978516 L445.14678955078125,125.59080505371094 L445.24371337890625,126.75533294677734 L445.3852844238281,127.35882568359375 M448.5210266113281,125.20506286621094 L448.54705810546875,125.2967529296875 L448.727294921875,125.40106201171875 L449.14801025390625,125.47132873535156 L449.8460388183594,125.42350769042969 L450.81427001953125,125.22291564941406 L451.95147705078125,124.82604217529297 L453.13787841796875,124.19864654541016 L454.32745361328125,123.32866668701172 L455.39923095703125,122.2393798828125 L456.2454528808594,120.98738098144531 L456.78594970703125,119.68751525878906 L456.9488525390625,118.48861694335938 L456.71087646484375,117.5386962890625 L456.1360778808594,116.95279693603516 L455.2940368652344,116.796630859375 L454.2865905761719,117.10304260253906 L453.18084716796875,117.89488983154297 L452.0721740722656,119.16808319091797 L451.05535888671875,120.8621597290039 L450.2427062988281,122.83938598632812 L449.7624206542969,124.90228271484375 L449.7184753417969,126.8355484008789 L450.0981140136719,128.47250366210938 L450.9576416015625,129.65225219726562 L452.2538757324219,130.306640625 L453.8754577636719,130.4443817138672 L455.3407897949219,130.28631591796875 L456.3499755859375,130.0531768798828 M462.2960205078125,119.39826202392578 L462.1600341796875,119.38174438476562 L461.95037841796875,119.52603149414062 L461.69818115234375,119.97924041748047 L461.4266357421875,120.83543395996094 L461.13226318359375,122.035400390625 L460.8341979980469,123.46459197998047 L460.547119140625,124.9398193359375 L460.3435974121094,126.2793197631836 L460.27685546875,127.33833312988281 L460.3179016113281,128.01304626464844 L460.433349609375,128.24668884277344 L460.56512451171875,128.04672241210938 L460.6446533203125,127.43597412109375 L460.70855712890625,126.45474243164062 L460.8041687011719,125.1803970336914 L460.9771423339844,123.72293090820312 L461.26092529296875,122.18833923339844 L461.6329345703125,120.67378234863281 L462.01983642578125,119.28565979003906 L462.42999267578125,118.11962127685547 L462.87103271484375,117.23392486572266 L463.42266845703125,116.64092254638672 L464.17059326171875,116.2757797241211 L465.1675720214844,116.04691314697266 L466.3633728027344,115.89280700683594 L467.6944580078125,115.7845687866211 L469.00946044921875,115.69207000732422 L470.1811828613281,115.59830474853516 L471.1324157714844,115.46380615234375 L471.86962890625,115.25662231445312 L472.39691162109375,114.97469329833984 L472.7493591308594,114.62931060791016 L472.96124267578125,114.24662017822266 L473.0518493652344,113.89583587646484 L473.01971435546875,113.61195373535156 L472.9140625,113.44995880126953 L472.76141357421875,113.47318267822266 L472.5517578125,113.73406982421875 L472.3155212402344,114.28738403320312 L472.04449462890625,115.18429565429688 L471.6498718261719,116.38839721679688 L471.13531494140625,117.84654235839844 L470.55120849609375,119.4337387084961 L469.95172119140625,120.9794921875 L469.45867919921875,122.32215118408203 L469.13458251953125,123.36485290527344 L468.9246826171875,124.03988647460938 L468.8227233886719,124.33637237548828 L468.8184814453125,124.21892547607422 L468.9309387207031,123.6209716796875 L469.22857666015625,122.52359771728516 L469.72210693359375,121.02047729492188 L470.3767395019531,119.28624725341797 L471.205078125,117.54234313964844 L472.15997314453125,115.96882629394531 L473.208984375,114.66127014160156 L474.2814636230469,113.65669250488281 L475.2611083984375,112.951416015625 L476.0758361816406,112.50653839111328 L476.7806091308594,112.2696304321289 L477.4258117675781,112.17923736572266 L478.0748291015625,112.18363952636719 L478.6201477050781,112.22552490234375 L478.9775390625,112.26840209960938 M479.5609130859375,113.2913818359375 L479.61639404296875,113.29251098632812 L479.8081359863281,113.41178131103516 L480.1617431640625,113.75198364257812 L480.6448974609375,114.39736938476562 L481.1446838378906,115.3677749633789 L481.5642395019531,116.66354370117188 L481.8951416015625,118.2378921508789 L482.1663513183594,119.97864532470703 L482.47906494140625,121.72623443603516 L482.8865661621094,123.26943969726562 L483.3504638671875,124.45223236083984 L483.822021484375,125.1476058959961 L484.2524719238281,125.32512664794922 L484.6139221191406,125.0534896850586 L484.89031982421875,124.62115478515625 L485.06829833984375,124.24314880371094 M488.4239501953125,116.99067687988281 L488.3628234863281,117.05335235595703 L488.23114013671875,117.3136978149414 L487.96014404296875,117.92577362060547 L487.44586181640625,119.01664733886719 L486.5504150390625,120.67762756347656 L485.1744384765625,122.92205047607422 L483.35333251953125,125.68209838867188 L481.26715087890625,128.79859924316406 L479.15325927734375,132.0419158935547 L477.2364501953125,135.1610870361328 L475.6584777832031,137.9864959716797 L474.4665832519531,140.35760498046875 L473.6646728515625,142.1598663330078 L473.22021484375,143.29798889160156 L473.0368957519531,143.84295654296875 M515.9109497070312,109.41434478759766 L515.6216430664062,109.1003189086914 L515.059326171875,108.67817687988281 L514.2131958007812,108.27973937988281 L513.1395263671875,108.0895004272461 L511.8623352050781,108.15153503417969 L510.4346923828125,108.48883819580078 L508.9037170410156,109.11253356933594 L507.33184814453125,110.0638427734375 L505.7890319824219,111.3607177734375 L504.27423095703125,113.00603485107422 L502.7834777832031,114.97416687011719 L501.3541564941406,117.22032165527344 L500.1100158691406,119.65158081054688 L499.24981689453125,122.11408233642578 L498.9713134765625,124.40592193603516 L499.3467102050781,126.32704162597656 L500.36297607421875,127.7130126953125 L501.9227600097656,128.4792938232422 L503.8829345703125,128.6178741455078 L506.154541015625,128.06057739257812 L508.5820007324219,126.84278106689453 L510.96868896484375,125.10797119140625 L512.8397216796875,123.45626831054688 L513.9811401367188,122.29582214355469 M521.0355224609375,106.93864440917969 L520.991943359375,106.73892211914062 L520.9863891601562,106.55231475830078 L521.004150390625,106.54067993164062 L521.0189208984375,106.91358184814453 L520.933837890625,107.78150177001953 L520.6497802734375,109.1396484375 L520.1566162109375,110.92369842529297 L519.5321044921875,113.04788208007812 L518.8425903320312,115.37094116210938 L518.1919555664062,117.76359558105469 L517.6177368164062,120.11475372314453 L517.1425170898438,122.27164459228516 L516.7564086914062,124.0997543334961 L516.461181640625,125.49032592773438 L516.2822265625,126.38612365722656 L516.2353515625,126.755126953125 L516.3204345703125,126.60486602783203 L516.5927124023438,125.9238052368164 L517.0535278320312,124.74126434326172 L517.723388671875,123.17498016357422 L518.6588134765625,121.40401458740234 L519.8176879882812,119.60223388671875 L521.13232421875,117.94879913330078 L522.5401611328125,116.5714340209961 L523.90771484375,115.5632095336914 L525.1431884765625,115.01392364501953 L526.2217407226562,114.97969055175781 L527.0823364257812,115.47266387939453 L527.658447265625,116.45506286621094 L527.9029541015625,117.8499526977539 L527.78662109375,119.49962615966797 L527.4188842773438,121.2264404296875 L526.9888916015625,122.83271026611328 L526.682373046875,124.15985107421875 L526.5464477539062,125.04399108886719 L526.5396728515625,125.5019302368164 M532.6661376953125,117.50645446777344 L532.697998046875,117.40872955322266 L532.7281494140625,117.44326782226562 L532.7052612304688,117.8039321899414 L532.5732421875,118.64312744140625 L532.3161010742188,119.9052963256836 L531.968017578125,121.43620300292969 L531.600341796875,122.98406982421875 L531.2872314453125,124.3425521850586 L531.0682373046875,125.38105010986328 L530.99853515625,126.01034545898438 L531.1220703125,126.16143798828125 L531.490234375,125.79732513427734 L532.160888671875,124.8887939453125 L533.086181640625,123.52140045166016 L534.2174072265625,121.88020324707031 L535.5096435546875,120.15333557128906 L536.9140625,118.51329040527344 L538.359130859375,117.09255981445312 L539.7650756835938,115.9515380859375 L541.008544921875,115.1455078125 L542.0256958007812,114.69451141357422 L542.8353271484375,114.55149841308594 L543.4846801757812,114.67488098144531 L543.9873046875,115.03742980957031 L544.3192749023438,115.61102294921875 L544.4638671875,116.40099334716797 L544.3673095703125,117.39498901367188 L544.08349609375,118.57608032226562 L543.6341552734375,119.93778228759766 L543.075439453125,121.43246459960938 L542.4654541015625,122.96485137939453 L541.9274291992188,124.40636444091797 L541.5242919921875,125.6020278930664 L541.345703125,126.46587371826172 L541.3259887695312,126.97354125976562 L541.3840942382812,127.19377136230469 M545.7688598632812,108.84385681152344 L545.8273315429688,108.5608139038086 L545.9827270507812,108.24213409423828 L546.1741943359375,107.98783874511719 L546.3407592773438,107.89796447753906 M556.173095703125,113.82899475097656 L556.06982421875,113.72338104248047 L555.783447265625,113.52688598632812 L555.2330322265625,113.2930679321289 L554.357666015625,113.13520050048828 L553.16845703125,113.1611099243164 L551.740966796875,113.42892456054688 L550.2440185546875,113.91598510742188 L548.8992309570312,114.56988525390625 L547.942138671875,115.34101104736328 L547.49169921875,116.18749237060547 L547.5843505859375,117.08647155761719 L548.1466064453125,117.99103546142578 L549.0577392578125,118.851806640625 L550.201904296875,119.65779876708984 L551.4722900390625,120.41803741455078 L552.7254028320312,121.1580810546875 L553.8367919921875,121.9260482788086 L554.6463623046875,122.72132110595703 L555.03173828125,123.53028869628906 L554.9513549804688,124.3445053100586 L554.3890380859375,125.12564849853516 L553.3723754882812,125.81466674804688 L551.9885864257812,126.38127136230469 L550.3258056640625,126.74580383300781 L548.5728759765625,126.86780548095703 L546.9625244140625,126.77180480957031 L545.7864379882812,126.5809326171875 L545.1328125,126.40020751953125 M558.7735595703125,106.44437408447266 L559.00390625,106.09613800048828 L559.39892578125,105.62787628173828 L559.876953125,105.19136047363281 L560.3075561523438,105.0 L560.5906982421875,105.12451171875 L560.711181640625,105.61251831054688 L560.6741333007812,106.47870635986328 L560.5469360351562,107.73268127441406 L560.375244140625,109.34982299804688 L560.2081298828125,111.27666473388672 L560.03466796875,113.43917083740234 L559.85009765625,115.72694396972656 L559.6236572265625,118.00386810302734 L559.386962890625,120.13207244873047 L559.174560546875,121.97039794921875 L558.984619140625,123.40445709228516 L558.78369140625,124.38312530517578 L558.5221557617188,124.91320037841797 L558.2562255859375,125.10902404785156 L558.053955078125,125.1284408569336 M554.8642578125,117.70603942871094 L554.9730834960938,117.51747131347656 L555.3260498046875,117.19713592529297 L556.0342407226562,116.76889038085938 L557.1148681640625,116.3191909790039 L558.4860229492188,115.8985595703125 L559.99853515625,115.53621673583984 L561.5133056640625,115.26238250732422 L562.941162109375,115.08143615722656 L564.1875610351562,114.95519256591797 L565.1680908203125,114.8540267944336 L565.8004150390625,114.77392578125 L566.1069946289062,114.7100601196289 M568.5218505859375,114.51438903808594 L568.5718994140625,114.52146911621094 L568.631103515625,114.61610412597656 L568.6546020507812,114.8879165649414 L568.5654296875,115.45126342773438 L568.3475952148438,116.3667984008789 L568.000732421875,117.62646484375 L567.6033935546875,119.13214111328125 L567.1681518554688,120.75501251220703 L566.761962890625,122.30850982666016 L566.390380859375,123.67782592773438 L566.0762329101562,124.76750183105469 L565.7916259765625,125.4898910522461 L565.6075439453125,125.76287078857422 L565.4998779296875,125.54727935791016 L565.567138671875,124.7813720703125 L565.8908081054688,123.53227996826172 L566.4842529296875,121.9336166381836 L567.3240356445312,120.16818237304688 L568.3990478515625,118.43254852294922 L569.5911865234375,116.92476654052734 L570.799072265625,115.77722930908203 L571.95654296875,115.10444641113281 L572.9361572265625,114.9542236328125 L573.7177734375,115.32512664794922 L574.26171875,116.16743469238281 L574.5653076171875,117.39209747314453 L574.6365966796875,118.83694458007812 L574.5490112304688,120.29198455810547 L574.3479614257812,121.53660583496094 L574.161376953125,122.41485595703125 L574.0169677734375,122.85006713867188 L573.977783203125,122.81063842773438 L574.0986328125,122.30476379394531 L574.4483032226562,121.37468719482422 L575.0530395507812,120.11962127685547 L575.9675903320312,118.711669921875 L577.1879272460938,117.33891296386719 L578.6590576171875,116.14439392089844 L580.2461547851562,115.25808715820312 L581.7510375976562,114.75433349609375 L582.934326171875,114.68208312988281 L583.6785888671875,115.06591796875 L584.01416015625,115.88875579833984 L584.043212890625,117.07357025146484 L583.932373046875,118.48905944824219 L583.8194580078125,119.93587493896484 L583.7661743164062,121.2456283569336 L583.8777465820312,122.2374038696289 L584.2070922851562,122.81927490234375 L584.75146484375,122.98138427734375 L585.31689453125,122.89085388183594 L585.7434692382812,122.7148666381836 M595.7295532226562,115.04681396484375 L595.5440673828125,114.6725845336914 L595.1732788085938,114.1648178100586 L594.5814208984375,113.68565368652344 L593.7794189453125,113.48220825195312 L592.79052734375,113.61992645263672 L591.6692504882812,114.13986206054688 L590.5411376953125,114.99815368652344 L589.5040283203125,116.13349914550781 L588.6895751953125,117.4534683227539 L588.181640625,118.84886169433594 L588.0262451171875,120.16077423095703 L588.2266845703125,121.2805404663086 L588.7486572265625,122.09851837158203 L589.490234375,122.51211547851562 L590.40625,122.4649429321289 L591.4172973632812,121.94393920898438 L592.4605102539062,120.98284912109375 L593.496337890625,119.73193359375 L594.444091796875,118.36595153808594 L595.22607421875,117.0568618774414 L595.8121337890625,115.94075775146484 L596.1775512695312,115.100341796875 L596.352294921875,114.57923126220703 L596.3880004882812,114.41564178466797 L596.2900390625,114.62374877929688 L596.0443725585938,115.23939514160156 L595.6404418945312,116.26944732666016 L595.107177734375,117.66168975830078 L594.5072021484375,119.31216430664062 L593.9432373046875,121.05646514892578 L593.525634765625,122.7132568359375 L593.3466796875,124.09925079345703 L593.4478759765625,125.07522583007812 L593.8274536132812,125.58106994628906 L594.270263671875,125.73226165771484 L594.61474609375,125.69456481933594 M603.2664794921875,115.6050796508789 L603.1559448242188,115.40277862548828 L602.96875,115.07943725585938 L602.67529296875,114.69525909423828 L602.229736328125,114.3818130493164 L601.5663452148438,114.21864318847656 L600.6668701171875,114.23979187011719 L599.598388671875,114.42396545410156 L598.5001831054688,114.73371124267578 L597.4984130859375,115.12001037597656 L596.7092895507812,115.56742858886719 L596.2850341796875,116.05134582519531 L596.31103515625,116.5229721069336 L596.8692626953125,116.95962524414062 L597.9844970703125,117.35041809082031 L599.533203125,117.73870086669922 L601.323486328125,118.20330047607422 L603.1469116210938,118.77371215820312 L604.7701416015625,119.42552947998047 L606.055419921875,120.11564636230469 L606.9769287109375,120.78404998779297 L607.5360107421875,121.4225845336914 L607.7393798828125,122.04754638671875 L607.58251953125,122.67149353027344 L607.0508422851562,123.27590942382812 L606.17138671875,123.81963348388672 L605.0089721679688,124.26197052001953 L603.6644287109375,124.5569839477539 L602.1682739257812,124.64662170410156 L600.594482421875,124.52851867675781 L599.039794921875,124.22372436523438 L597.8174438476562,123.88270568847656 L597.0636596679688,123.63133239746094 M609.4098510742188,124.87283325195312 L609.4057006835938,124.85627746582031 L609.4439086914062,124.8271484375 L609.494140625,124.78744506835938 L609.54150390625,124.7516098022461 L609.5436401367188,124.7355728149414 L609.4857177734375,124.71925354003906 L609.407958984375,124.7017822265625 L609.3577880859375,124.685546875 " fill="none" stroke="black" stroke-linecap="round" stroke-width="1" /><path d="M0,0 M489.5094909667969,165.0 L489.5459899902344,165.00669860839844 L489.61541748046875,165.15953063964844 L489.71295166015625,165.59695434570312 L489.7786865234375,166.43763732910156 L489.737060546875,167.69969177246094 L489.5601501464844,169.34291076660156 L489.26849365234375,171.27674865722656 L488.9049377441406,173.39358520507812 L488.5340576171875,175.6129913330078 L488.16119384765625,177.88385009765625 L487.7881164550781,180.1487274169922 L487.43084716796875,182.30523681640625 L487.16278076171875,184.21578979492188 L487.0150451660156,185.7234649658203 L486.9970397949219,186.748291015625 L487.0718994140625,187.2837371826172 L487.2356262207031,187.385986328125 L487.5380554199219,187.07919311523438 L488.12762451171875,186.38339233398438 L489.1134948730469,185.3082275390625 L490.5037536621094,183.9881591796875 L492.1473083496094,182.60882568359375 L493.5680236816406,181.52415466308594 L494.4840087890625,180.88037109375 M503.0400695800781,177.03346252441406 L502.9957275390625,176.92698669433594 L502.85430908203125,176.79833984375 L502.5380554199219,176.7241668701172 L501.9591064453125,176.81358337402344 L501.0808410644531,177.14828491210938 L499.9757080078125,177.79689025878906 L498.74761962890625,178.7688751220703 L497.5744323730469,180.0250244140625 L496.6219177246094,181.45382690429688 L495.9833679199219,182.89813232421875 L495.7815856933594,184.2174835205078 L496.05987548828125,185.2928466796875 L496.796142578125,186.03021240234375 L497.94537353515625,186.35902404785156 L499.42462158203125,186.2259521484375 L501.08380126953125,185.6159210205078 L502.8338317871094,184.58123779296875 L504.4985656738281,183.22337341308594 L505.926025390625,181.68508911132812 L506.9862365722656,180.1225128173828 L507.6141052246094,178.67477416992188 L507.7621154785156,177.44863891601562 L507.45135498046875,176.5115966796875 L506.72393798828125,175.8933563232422 L505.69464111328125,175.59353637695312 L504.5254821777344,175.5814208984375 L503.3877868652344,175.79505920410156 L502.49322509765625,176.14932250976562 L501.9836730957031,176.53575134277344 L501.9339294433594,176.86813354492188 L502.1549072265625,177.088134765625 L502.44097900390625,177.19287109375 M511.6263122558594,175.1075439453125 L511.7267761230469,175.44235229492188 L511.85906982421875,176.07391357421875 L511.9814758300781,177.0048370361328 L512.055419921875,178.1588592529297 L512.0965576171875,179.49618530273438 L512.1463012695312,180.94651794433594 L512.263671875,182.42430114746094 L512.465087890625,183.79803466796875 L512.7472534179688,184.94049072265625 L513.0734252929688,185.7732391357422 L513.3795776367188,186.239013671875 L513.6537475585938,186.30760192871094 L513.9203491210938,185.94598388671875 L514.1785888671875,185.09793090820312 L514.4863891601562,183.7813262939453 L514.8445434570312,182.0928497314453 L515.219482421875,180.177001953125 L515.603271484375,178.20941162109375 L515.9779663085938,176.33706665039062 L516.3030395507812,174.68858337402344 L516.608642578125,173.3984832763672 L516.8444213867188,172.5738525390625 L516.9862060546875,172.17869567871094 M522.1481323242188,180.44166564941406 L522.5475463867188,180.08856201171875 L523.2879028320312,179.37603759765625 L524.3138427734375,178.29574584960938 L525.4273681640625,176.97950744628906 L526.4921264648438,175.5681610107422 L527.3651123046875,174.1764678955078 L527.9679565429688,172.86260986328125 L528.2655639648438,171.675537109375 L528.2213134765625,170.67306518554688 L527.817138671875,169.94093322753906 L527.098388671875,169.58912658691406 L526.1177368164062,169.68423461914062 L524.9716186523438,170.2406463623047 L523.757568359375,171.2036590576172 L522.5664672851562,172.4895782470703 L521.509521484375,173.97946166992188 L520.74658203125,175.5747833251953 L520.4066772460938,177.1674346923828 L520.5794677734375,178.64663696289062 L521.2576904296875,179.90289306640625 L522.3810424804688,180.85015869140625 L523.8912353515625,181.42581176757812 L525.729736328125,181.63604736328125 L527.8539428710938,181.5120391845703 L530.1309814453125,181.13128662109375 L532.3604736328125,180.60057067871094 L534.0878295898438,180.11614990234375 L535.1246337890625,179.7913055419922 M541.1935424804688,178.7374267578125 L541.2025146484375,178.72503662109375 L541.2626953125,178.7507781982422 L541.3632202148438,178.89129638671875 L541.4445190429688,179.2425537109375 L541.4343872070312,179.90567016601562 L541.2608032226562,180.9241943359375 L540.9017333984375,182.2952117919922 L540.3931884765625,183.98170471191406 L539.77734375,185.856689453125 L539.1011962890625,187.7329559326172 L538.542724609375,189.21224975585938 L538.18212890625,190.10794067382812 " fill="none" stroke="black" stroke-linecap="round" stroke-width="1" /><path d="M0,0 M458.2657775878906,225.6605987548828 L458.2462158203125,225.5557098388672 L458.2714538574219,225.4417724609375 L458.3615417480469,225.40863037109375 L458.54168701171875,225.58787536621094 L458.7788391113281,226.0483856201172 L459.051513671875,226.81195068359375 L459.3413391113281,227.85813903808594 L459.6507263183594,229.12039184570312 L459.9648132324219,230.5137939453125 L460.3074951171875,231.96066284179688 L460.65625,233.36834716796875 L460.99859619140625,234.63125610351562 L461.3216857910156,235.6523895263672 L461.6440124511719,236.3204803466797 L462.0372619628906,236.5550537109375 L462.5952453613281,236.32772827148438 L463.3568115234375,235.66543579101562 L464.33172607421875,234.67384338378906 L465.4407653808594,233.53024291992188 L466.5749816894531,232.4276580810547 L467.65594482421875,231.53477478027344 L468.6203308105469,230.95425415039062 L469.46405029296875,230.68453979492188 L470.24700927734375,230.68125915527344 L471.00323486328125,230.8920135498047 L471.75762939453125,231.28419494628906 L472.5157775878906,231.83132934570312 L473.2606201171875,232.49954223632812 L473.9742431640625,233.1859893798828 L474.6356506347656,233.77798461914062 L475.19439697265625,234.1767578125 L475.62548828125,234.3410186767578 L475.8999938964844,234.27696228027344 L476.02410888671875,234.05209350585938 L476.0217590332031,233.7414093017578 L475.9420471191406,233.434814453125 L475.829345703125,233.19651794433594 L475.7320251464844,233.0552215576172 L475.647216796875,232.98077392578125 L475.56500244140625,232.93789672851562 L475.46380615234375,232.89712524414062 L475.3484191894531,232.85427856445312 L475.23663330078125,232.81529235839844 L475.14593505859375,232.79208374023438 L475.08154296875,232.7736053466797 L475.04693603515625,232.7563018798828 L475.03253173828125,232.73663330078125 L475.03167724609375,232.715576171875 L475.03839111328125,232.6939239501953 L475.0369567871094,232.67117309570312 L475.0257263183594,232.64047241210938 L475.0047607421875,232.60293579101562 L474.97943115234375,232.56317138671875 L474.951171875,232.52938842773438 L474.9321594238281,232.50650024414062 L474.92608642578125,232.48863220214844 L474.9366760253906,232.46786499023438 L474.9546203613281,232.4356689453125 L474.9703369140625,232.39471435546875 L474.97503662109375,232.35479736328125 L474.97540283203125,232.33523559570312 L474.9860534667969,232.34713745117188 L475.00518798828125,232.39266967773438 L475.02685546875,232.43936157226562 L475.0346374511719,232.45193481445312 L475.0263366699219,232.40609741210938 L474.98529052734375,232.3097381591797 L474.93023681640625,232.19419860839844 L474.87799072265625,232.10519409179688 L474.8558349609375,232.06011962890625 L474.8653259277344,232.0538330078125 L474.9039306640625,232.07232666015625 L474.92645263671875,232.08872985839844 L474.927490234375,232.08642578125 L474.9123229980469,232.06146240234375 L474.8944396972656,232.02589416503906 L474.8815612792969,231.9850616455078 L474.877685546875,231.95887756347656 L474.87298583984375,231.94419860839844 L474.8643798828125,231.93788146972656 L474.84356689453125,231.93170166015625 L474.80078125,231.92666625976562 L474.7443542480469,231.91555786132812 L474.68157958984375,231.90560913085938 L474.6322326660156,231.888427734375 L474.5829162597656,231.8546142578125 L474.50335693359375,231.81988525390625 L474.331787109375,231.8464813232422 L474.01348876953125,232.0371551513672 L473.5333251953125,232.50595092773438 L472.955078125,233.33465576171875 L472.3599548339844,234.504638671875 L471.8318786621094,235.93930053710938 L471.4043273925781,237.52255249023438 L471.0941162109375,239.13311767578125 L470.94537353515625,240.65660095214844 L471.0436096191406,242.01077270507812 L471.4317626953125,243.10350036621094 L472.101318359375,243.86410522460938 L472.9974060058594,244.22967529296875 L474.05804443359375,244.14930725097656 L475.2193908691406,243.6041717529297 L476.40325927734375,242.61932373046875 L477.4560852050781,241.27487182617188 L478.22845458984375,239.67276000976562 L478.5968017578125,237.9054412841797 L478.5151062011719,236.05892944335938 L477.9828186035156,234.23870849609375 L477.0121765136719,232.59051513671875 L475.6436462402344,231.31529235839844 L473.99578857421875,230.5894317626953 L472.2532043457031,230.5520477294922 L470.6727600097656,231.1856689453125 L469.46246337890625,232.3136444091797 L468.72491455078125,233.43833923339844 L468.3997802734375,234.23040771484375 M483.29571533203125,236.99864196777344 L483.3193054199219,236.95404052734375 L483.3282775878906,236.85076904296875 L483.2889404296875,236.7005615234375 L483.1505432128906,236.5565643310547 L482.9042663574219,236.50967407226562 L482.5411682128906,236.6570281982422 L482.07318115234375,237.08177185058594 L481.5609436035156,237.8314666748047 L481.0931091308594,238.9069061279297 L480.74029541015625,240.2387237548828 L480.5845031738281,241.71383666992188 L480.65777587890625,243.19186401367188 L480.981689453125,244.5382537841797 L481.6044006347656,245.6258087158203 L482.5594177246094,246.34402465820312 L483.8198547363281,246.60211181640625 L485.28021240234375,246.3569793701172 L486.7600402832031,245.59291076660156 L488.0838928222656,244.36553955078125 L489.15283203125,242.80609130859375 L489.8929443359375,241.11611938476562 L490.24420166015625,239.53370666503906 L490.1314697265625,238.25650024414062 L489.52325439453125,237.37179565429688 L488.4627685546875,236.91827392578125 L487.0943908691406,236.9077911376953 L485.5980529785156,237.3460693359375 L484.216064453125,238.17660522460938 L483.16717529296875,239.2222137451172 L482.6039733886719,240.23074340820312 L482.4436950683594,240.9579315185547 L482.5099792480469,241.3324432373047 M493.6290283203125,235.39549255371094 L493.64385986328125,235.783935546875 L493.6237487792969,236.6417236328125 L493.5567321777344,238.02772521972656 L493.4580078125,239.80784606933594 L493.40447998046875,241.75234985351562 L493.4563903808594,243.59829711914062 L493.621826171875,245.12152099609375 L493.8339538574219,246.2064971923828 L494.0050964355469,246.79360961914062 L494.0712890625,246.8659210205078 L494.040283203125,246.4115447998047 L494.0118408203125,245.42889404296875 L494.101318359375,243.9773712158203 L494.39410400390625,242.20025634765625 L494.9495544433594,240.26773071289062 L495.81744384765625,238.3699951171875 L496.9984130859375,236.6834716796875 L498.4588317871094,235.35910034179688 L500.08013916015625,234.53671264648438 L501.6676025390625,234.3207550048828 L502.98858642578125,234.7669219970703 L503.89801025390625,235.85836791992188 L504.3218994140625,237.48342895507812 L504.3506164550781,239.4354705810547 L504.1971435546875,241.42666625976562 L504.10211181640625,243.1781463623047 L504.115234375,244.40065002441406 L504.2144470214844,245.05177307128906 M515.1110229492188,236.46377563476562 L514.6536865234375,236.42807006835938 L513.8717651367188,236.52125549316406 L512.8123779296875,236.87803649902344 L511.6529846191406,237.59071350097656 L510.520263671875,238.6212921142578 L509.56243896484375,239.84640502929688 L508.92120361328125,241.09515380859375 L508.67938232421875,242.22853088378906 L508.833740234375,243.1190643310547 L509.3511657714844,243.67274475097656 L510.1633605957031,243.81007385253906 L511.2372131347656,243.4830322265625 L512.5023803710938,242.67864990234375 L513.8046875,241.4484405517578 L514.9869995117188,239.9295196533203 L515.9345703125,238.36293029785156 L516.5609741210938,236.98150634765625 L516.9022827148438,235.9747314453125 L517.039306640625,235.43104553222656 L517.0245361328125,235.36317443847656 L516.9207763671875,235.7754364013672 L516.7950439453125,236.6811065673828 L516.6969604492188,237.99581909179688 L516.732666015625,239.54541015625 L516.9999389648438,241.06846618652344 L517.50341796875,242.33258056640625 L518.0391235351562,243.158447265625 L518.4472045898438,243.5694580078125 M524.7243041992188,226.45407104492188 L524.7831420898438,226.6338653564453 L524.8571166992188,227.12771606445312 L524.9100341796875,228.05706787109375 L524.8489379882812,229.44735717773438 L524.6435546875,231.25540161132812 L524.280029296875,233.3804168701172 L523.8231201171875,235.70123291015625 L523.4083251953125,238.0519561767578 L523.1651611328125,240.20545959472656 L523.1021728515625,241.94110107421875 L523.1607666015625,243.07037353515625 L523.2417602539062,243.62060546875 M521.21044921875,237.39105224609375 L521.6281127929688,237.49984741210938 L522.5089721679688,237.6658477783203 L523.521484375,237.8309783935547 L524.3341064453125,237.93711853027344 M533.6271362304688,225.08668518066406 L533.7086181640625,225.0 L533.83740234375,225.04534912109375 L533.9637451171875,225.42129516601562 L533.9892578125,226.31251525878906 L533.8642578125,227.73770141601562 L533.5866088867188,229.61422729492188 L533.2183837890625,231.77879333496094 L532.8238525390625,234.03932189941406 L532.484375,236.2132110595703 L532.2026977539062,238.11085510253906 L532.01220703125,239.60302734375 L531.9229125976562,240.63812255859375 L531.9378662109375,241.18606567382812 L532.0653076171875,241.24342346191406 L532.3538208007812,240.8224334716797 L532.8073120117188,239.910888671875 L533.4651489257812,238.60916137695312 L534.3529052734375,237.09896850585938 L535.4539794921875,235.52857971191406 L536.7463989257812,234.0692901611328 L538.1514892578125,232.8673095703125 L539.5364990234375,232.0226287841797 L540.7396240234375,231.6489715576172 L541.66015625,231.81753540039062 L542.2688598632812,232.48696899414062 L542.6649780273438,233.59385681152344 L542.9647827148438,235.006103515625 L543.301513671875,236.5657958984375 L543.7094116210938,238.09130859375 L544.1922607421875,239.41961669921875 L544.6128540039062,240.3435516357422 L544.8966674804688,240.84303283691406 M551.6004028320312,233.71826171875 L551.63818359375,233.35031127929688 L551.6307373046875,232.78762817382812 L551.4978637695312,232.1382598876953 L551.1452026367188,231.60520935058594 L550.5069580078125,231.2821502685547 L549.5543212890625,231.27088928222656 L548.3613891601562,231.64295959472656 L547.0382690429688,232.43399047851562 L545.7966918945312,233.59197998046875 L544.8499145507812,234.98065185546875 L544.36328125,236.39540100097656 L544.3919677734375,237.64662170410156 L544.9381103515625,238.57769775390625 L545.919189453125,239.0682830810547 L547.236572265625,239.04122924804688 L548.7625122070312,238.4753875732422 L550.350830078125,237.42782592773438 L551.8453979492188,236.0447235107422 L553.1212768554688,234.51100158691406 L554.1000366210938,233.0179901123047 L554.729248046875,231.71798706054688 L555.04296875,230.7092742919922 L555.1134033203125,230.0566864013672 L555.0685424804688,229.78533935546875 L555.0255126953125,229.8962860107422 L555.0814819335938,230.39657592773438 L555.2094116210938,231.24618530273438 L555.380615234375,232.36184692382812 L555.5629272460938,233.6165313720703 L555.7581787109375,234.83746337890625 L556.005859375,235.88235473632812 L556.3560180664062,236.66091918945312 L556.753173828125,237.1239471435547 L557.1580810546875,237.29026794433594 L557.5291748046875,237.20431518554688 L557.8375854492188,236.90963745117188 L558.114501953125,236.45123291015625 L558.3975219726562,235.84361267089844 L558.7156372070312,235.08828735351562 L559.1400756835938,234.21435546875 L559.7307739257812,233.26422119140625 L560.507568359375,232.32293701171875 L561.4654541015625,231.48402404785156 L562.5177001953125,230.81707763671875 L563.602294921875,230.3629608154297 L564.6675415039062,230.13014221191406 L565.69921875,230.10032653808594 L566.6705322265625,230.29449462890625 L567.5841064453125,230.75343322753906 L568.37255859375,231.51611328125 L568.9734497070312,232.6092987060547 L569.2780151367188,234.02191162109375 L569.2501220703125,235.63671875 L568.918212890625,237.29791259765625 L568.512451171875,238.6260986328125 L568.1968994140625,239.43814086914062 " fill="none" stroke="black" stroke-linecap="round" stroke-width="1" /></svg>