<?xml version="1.0" encoding="utf-8" ?>
<svg baseProfile="full" height="100%" version="1.1" viewBox="0,0,1000,300" width="100%" xmlns="http://www.w3.org/2000/svg" xmlns:ev="http://www.w3.org/2001/xml-events" xmlns:xlink="http://www.w3.org/1999/xlink"><defs /><rect fill="white" height="300" width="1000" x="0" y="0" /><path d="M0,0 M375.40484619140625,49.86848449707031 L375.268798828125,50.300872802734375 L375.0856628417969,51.07754898071289 L374.91241455078125,52.191864013671875 L374.8299255371094,53.53245544433594 L374.8680419921875,55.08758544921875 L375.0188293457031,56.85110092163086 L375.25128173828125,58.83156204223633 L375.5311584472656,60.98902130126953 L375.8215026855469,63.25920486450195 L376.1296691894531,65.53137969970703 L376.51116943359375,67.6858901977539 L377.0345458984375,69.60929870605469 L377.725830078125,71.20790100097656 L378.5722351074219,72.41448974609375 L379.5196838378906,73.18408966064453 L380.5255126953125,73.4913101196289 L381.5467834472656,73.31836700439453 L382.582763671875,72.67474365234375 L383.6007385253906,71.59934997558594 L384.5503845214844,70.17893981933594 L385.3921813964844,68.54045104980469 L386.08721923828125,66.82797241210938 L386.6029052734375,65.1495132446289 L386.9646911621094,63.60838317871094 L387.1950378417969,62.28744888305664 L387.30975341796875,61.253421783447266 L387.35662841796875,60.553855895996094 L387.3501281738281,60.23290252685547 L387.32318115234375,60.310890197753906 L387.3053283691406,60.81898498535156 L387.3411865234375,61.789283752441406 L387.4757385253906,63.18537139892578 L387.76025390625,64.89297485351562 L388.20611572265625,66.76809692382812 L388.84130859375,68.63456726074219 L389.6361999511719,70.31019592285156 L390.5760803222656,71.68140411376953 L391.6397705078125,72.65543365478516 L392.78851318359375,73.18038177490234 L393.9768981933594,73.24578857421875 L395.18646240234375,72.8465805053711 L396.36700439453125,71.9569320678711 L397.4823913574219,70.58944702148438 L398.4937744140625,68.79061126708984 L399.3542785644531,66.63927459716797 L400.0379638671875,64.24462127685547 L400.5411376953125,61.71175765991211 L400.87628173828125,59.139556884765625 L401.0778503417969,56.625301361083984 L401.17205810546875,54.27731704711914 L401.15863037109375,52.168373107910156 L401.06561279296875,50.378440856933594 L400.9250793457031,48.9595947265625 L400.78338623046875,47.94416046142578 L400.7064208984375,47.327293395996094 L400.72369384765625,47.09782409667969 L400.8021545410156,47.17179489135742 L400.9230041503906,47.466796875 L401.03253173828125,47.80046081542969 L401.0980224609375,48.04935836791992 M406.08331298828125,60.505584716796875 L406.13958740234375,60.41619110107422 L406.22698974609375,60.349029541015625 L406.3394470214844,60.41638946533203 L406.451416015625,60.75215148925781 L406.5386657714844,61.4150390625 L406.5804748535156,62.42280578613281 L406.53961181640625,63.72201919555664 L406.4219970703125,65.24519348144531 L406.2598876953125,66.9135513305664 L406.08935546875,68.63896179199219 L405.93145751953125,70.324951171875 L405.82958984375,71.86518859863281 L405.7929992675781,73.14282989501953 L405.8140869140625,74.0873031616211 L405.88104248046875,74.7019271850586 L405.964599609375,74.94588470458984 L406.04022216796875,74.81947326660156 L406.11669921875,74.33525848388672 L406.1817932128906,73.74543762207031 L406.2236022949219,73.2593765258789 M407.46240234375,48.398414611816406 L407.4566345214844,48.35111999511719 L407.4503173828125,48.32793426513672 L407.4312744140625,48.37250900268555 L407.4200744628906,48.55363464355469 L407.4429931640625,48.88055419921875 L407.5319519042969,49.330406188964844 L407.6478271484375,49.74571228027344 L407.75592041015625,50.03817367553711 M420.8216552734375,59.20288848876953 L420.539794921875,59.13508987426758 L419.9881591796875,59.03988265991211 L419.16522216796875,58.955162048339844 L418.1695556640625,58.95108413696289 L417.0947265625,59.061790466308594 L416.06268310546875,59.32354736328125 L415.16033935546875,59.73774719238281 L414.4648132324219,60.29780960083008 L414.0453796386719,60.985050201416016 L413.97955322265625,61.80661392211914 L414.3221435546875,62.72903060913086 L415.11383056640625,63.7227897644043 L416.33099365234375,64.7387924194336 L417.8895263671875,65.74452209472656 L419.64837646484375,66.71168518066406 L421.4599609375,67.66545104980469 L423.1277770996094,68.6030044555664 L424.5054931640625,69.52881622314453 L425.4859924316406,70.43128204345703 L426.0103759765625,71.3067855834961 L426.07257080078125,72.13155364990234 L425.7099914550781,72.88401794433594 L424.94195556640625,73.52294921875 L423.81695556640625,74.01740264892578 L422.3803405761719,74.33226776123047 L420.68878173828125,74.46089172363281 L418.83270263671875,74.41905212402344 L416.9266357421875,74.22338104248047 L415.0845642089844,73.90937042236328 L413.41436767578125,73.51529693603516 L411.9889221191406,73.07395935058594 L410.87255859375,72.59496307373047 L410.11724853515625,72.10746002197266 L409.74285888671875,71.62664794921875 L409.6452331542969,71.24638366699219 L409.69140625,71.0095443725586 M428.84527587890625,45.0 L428.8907775878906,45.256290435791016 L429.0220031738281,45.806251525878906 L429.2448425292969,46.70866394042969 L429.5357360839844,47.949615478515625 L429.82366943359375,49.51203155517578 L430.052490234375,51.38319396972656 L430.1923828125,53.54634094238281 L430.26739501953125,55.9494514465332 L430.31317138671875,58.508094787597656 L430.3636169433594,61.10120391845703 L430.42730712890625,63.600318908691406 L430.5015869140625,65.90843200683594 L430.5657043457031,67.93777465820312 L430.62310791015625,69.61357879638672 L430.6852111816406,70.88579559326172 L430.7475891113281,71.72468566894531 L430.8116149902344,72.14022064208984 L430.8736267089844,72.15229797363281 L430.92657470703125,71.76124572753906 L431.00152587890625,70.96998596191406 L431.1324462890625,69.8038101196289 L431.37481689453125,68.35294342041016 L431.77081298828125,66.74803924560547 L432.34814453125,65.0954360961914 L433.1174011230469,63.48942565917969 L434.0787048339844,62.00978469848633 L435.1847229003906,60.709800720214844 L436.4118347167969,59.670719146728516 L437.6961975097656,58.94658279418945 L438.96331787109375,58.55813217163086 L440.1640625,58.52598571777344 L441.2397766113281,58.859622955322266 L442.1284484863281,59.541561126708984 L442.8258056640625,60.56337356567383 L443.330078125,61.860015869140625 L443.64373779296875,63.355899810791016 L443.81353759765625,64.96574401855469 L443.868896484375,66.59593200683594 L443.8511047363281,68.14888763427734 L443.8210144042969,69.53885650634766 L443.8251953125,70.65628814697266 L443.87615966796875,71.44708251953125 L443.9505310058594,71.90147399902344 L444.01263427734375,72.09197235107422 M448.72393798828125,60.186973571777344 L448.7859802246094,60.343414306640625 L448.87811279296875,60.692440032958984 L448.9800720214844,61.29708480834961 L449.05755615234375,62.178306579589844 L449.08740234375,63.34221649169922 L449.052978515625,64.74475860595703 L448.9601135253906,66.3237533569336 L448.8354187011719,67.98155212402344 L448.70550537109375,69.60598754882812 L448.59674072265625,71.092041015625 L448.52789306640625,72.36848449707031 L448.4996032714844,73.30796813964844 L448.5101623535156,73.8314208984375 L448.55926513671875,73.90446472167969 L448.61395263671875,73.7108154296875 L448.6522216796875,73.45004272460938 M448.96087646484375,47.10515594482422 L448.906982421875,46.99954605102539 L448.88311767578125,46.94682312011719 L448.89154052734375,46.954742431640625 L448.93450927734375,47.031070709228516 M455.46923828125,60.81002426147461 L455.5133361816406,61.13996124267578 L455.54443359375,61.82950973510742 L455.51702880859375,62.909812927246094 L455.40399169921875,64.2961196899414 L455.22296142578125,65.88990020751953 L455.01226806640625,67.5680923461914 L454.8096008300781,69.19834899902344 L454.6420593261719,70.6441879272461 L454.5228271484375,71.78257751464844 L454.4670715332031,72.52640533447266 L454.46502685546875,72.82125854492188 L454.4987487792969,72.64147186279297 L454.5684814453125,71.96987915039062 L454.6917724609375,70.81398010253906 L454.9054870605469,69.27342224121094 L455.2586669921875,67.4872055053711 L455.7679443359375,65.6112289428711 L456.4053649902344,63.766807556152344 L457.1542663574219,62.05179977416992 L457.97650146484375,60.540565490722656 L458.81732177734375,59.31224060058594 L459.6527099609375,58.43347930908203 L460.4649353027344,57.94646072387695 L461.2396240234375,57.86003112792969 L461.9913330078125,58.19060134887695 L462.73773193359375,58.94268798828125 L463.4607849121094,60.07021713256836 L464.15191650390625,61.52029037475586 L464.7960205078125,63.18684768676758 L465.36865234375,64.95602416992188 L465.8467102050781,66.72718048095703 L466.23675537109375,68.39556121826172 L466.5348815917969,69.85319519042969 L466.7515869140625,71.0362548828125 L466.9122314453125,71.8996810913086 L467.050048828125,72.38048553466797 L467.1978759765625,72.46378326416016 L467.3880615234375,72.16187286376953 L467.57171630859375,71.71306610107422 L467.7060241699219,71.32429504394531 M478.6222839355469,61.9047966003418 L478.5040283203125,61.59606170654297 L478.2728576660156,61.14018249511719 L477.8818664550781,60.63947296142578 L477.31317138671875,60.2761116027832 L476.5127868652344,60.128658294677734 L475.490966796875,60.274906158447266 L474.31646728515625,60.740257263183594 L473.0976867675781,61.53886413574219 L471.96319580078125,62.628135681152344 L471.05999755859375,63.93534469604492 L470.47015380859375,65.34227752685547 L470.2709045410156,66.73147583007812 L470.49005126953125,67.97036743164062 L471.1057434082031,68.95564270019531 L472.0739440917969,69.6060562133789 L473.3145446777344,69.88053131103516 L474.7197265625,69.76167297363281 L476.1899108886719,69.26693725585938 L477.6267395019531,68.4483642578125 L478.9432373046875,67.39872741699219 L480.07562255859375,66.2235107421875 L480.95782470703125,65.02655792236328 L481.5846252441406,63.899959564208984 L481.96392822265625,62.90650177001953 L482.1435241699219,62.09389114379883 L482.182861328125,61.50699996948242 L482.13946533203125,61.19542694091797 L482.05499267578125,61.21987533569336 L481.9866027832031,61.63652801513672 L481.95745849609375,62.4680290222168 L481.9869384765625,63.69062042236328 L482.10333251953125,65.24361419677734 L482.3072814941406,67.05113983154297 L482.6123046875,69.0545654296875 L483.02667236328125,71.18504333496094 L483.5208740234375,73.37346649169922 L484.0426025390625,75.5467529296875 L484.54351806640625,77.61786651611328 L484.9241943359375,79.5046157836914 L485.1178283691406,81.15022277832031 L485.0864562988281,82.51119232177734 L484.7918701171875,83.57115173339844 L484.22979736328125,84.33655548095703 L483.4144287109375,84.8157958984375 L482.3477783203125,85.02910614013672 L481.05194091796875,85.01144409179688 L479.58917236328125,84.8022689819336 L478.02301025390625,84.4410629272461 L476.44439697265625,83.96577453613281 L474.92462158203125,83.41055297851562 L473.49847412109375,82.81844329833984 L472.1720275878906,82.2404556274414 L470.9510498046875,81.70564270019531 L469.85089111328125,81.23310852050781 L469.0309753417969,80.8863754272461 L468.54736328125,80.67996215820312 M501.4865417480469,60.02894592285156 L501.48358154296875,60.34267807006836 L501.5257568359375,60.99378967285156 L501.6590576171875,62.0166015625 L501.90789794921875,63.305091857910156 L502.2869873046875,64.7236557006836 L502.80377197265625,66.12576293945312 L503.4554443359375,67.3736572265625 L504.24163818359375,68.35137176513672 L505.16497802734375,68.97021484375 L506.1935119628906,69.14195251464844 L507.3270263671875,68.82411193847656 L508.5425720214844,68.0446548461914 L509.78680419921875,66.87989807128906 L511.00592041015625,65.46774291992188 L512.1284790039062,63.95499801635742 L513.0756225585938,62.48308181762695 L513.8070678710938,61.190399169921875 L514.3031005859375,60.186973571777344 L514.5731811523438,59.522762298583984 L514.6718139648438,59.21408462524414 L514.6492919921875,59.244361877441406 L514.537109375,59.627197265625 L514.3374633789062,60.41242599487305 L514.0587158203125,61.6434211730957 L513.6953735351562,63.29793930053711 L513.2822265625,65.30409240722656 L512.8629150390625,67.544677734375 L512.4703369140625,69.91172790527344 L512.1375122070312,72.31230926513672 L511.8985595703125,74.66089630126953 L511.7347412109375,76.85774230957031 L511.6502380371094,78.80795288085938 L511.6407470703125,80.42235565185547 L511.6908874511719,81.65948486328125 L511.79327392578125,82.5281982421875 L511.9141845703125,83.02987670898438 L511.99383544921875,83.1887435913086 L512.0140991210938,83.0523452758789 L511.9921875,82.7903060913086 L511.95587158203125,82.54832458496094 M524.0947265625,60.94875717163086 L523.9028930664062,60.75210952758789 L523.50537109375,60.50379943847656 L522.8514404296875,60.30973815917969 L521.966064453125,60.32828140258789 L520.88818359375,60.630645751953125 L519.7053833007812,61.269004821777344 L518.513427734375,62.22950744628906 L517.4034423828125,63.47829055786133 L516.4470825195312,64.93909454345703 L515.7316284179688,66.52008819580078 L515.362548828125,68.11375427246094 L515.4192504882812,69.594482421875 L515.9481811523438,70.82979583740234 L516.9329223632812,71.69435119628906 L518.2850341796875,72.1065673828125 L519.9051513671875,72.03262329101562 L521.6859741210938,71.49268341064453 L523.498779296875,70.5378646850586 L525.22119140625,69.25715637207031 L526.7176513671875,67.74134826660156 L527.8526611328125,66.09107971191406 L528.560791015625,64.41236877441406 L528.8289184570312,62.80995559692383 L528.7018432617188,61.377140045166016 L528.2774658203125,60.181880950927734 L527.6563110351562,59.25950622558594 L526.94140625,58.60335922241211 L526.2366943359375,58.21612548828125 L525.632080078125,58.06990051269531 L525.188720703125,58.13029098510742 L524.9325561523438,58.27745056152344 L524.8255615234375,58.41777420043945 M533.5034790039062,58.2015266418457 L533.4695434570312,58.25843811035156 L533.3881225585938,58.47951126098633 L533.2544555664062,58.96626281738281 L533.0930786132812,59.78102493286133 L532.9473266601562,60.9130744934082 L532.8491821289062,62.325477600097656 L532.8308715820312,63.950462341308594 L532.9286499023438,65.67135620117188 L533.18017578125,67.34919738769531 L533.6148071289062,68.83183288574219 L534.2557373046875,69.9944076538086 L535.0670166015625,70.75616455078125 L535.999755859375,71.08177947998047 L536.9944458007812,70.96464538574219 L538.00146484375,70.41463470458984 L538.993408203125,69.4715805053711 L539.9812622070312,68.21549987792969 L540.9542236328125,66.73915100097656 L541.9112548828125,65.15554809570312 L542.815185546875,63.576499938964844 L543.613037109375,62.09821701049805 L544.2607421875,60.81623077392578 L544.7235717773438,59.810874938964844 L544.9940795898438,59.1358642578125 L545.1224975585938,58.837181091308594 L545.151611328125,58.91874694824219 L545.1189575195312,59.388893127441406 L545.041748046875,60.23804473876953 L544.9242553710938,61.41338348388672 L544.7913818359375,62.827816009521484 L544.6961669921875,64.37332916259766 L544.6865234375,65.914794921875 L544.7874145507812,67.35284423828125 L544.9906005859375,68.61124420166016 L545.2703857421875,69.6346664428711 L545.5887451171875,70.36709594726562 L545.8984375,70.77916717529297 L546.1630859375,70.88001251220703 L546.3425903320312,70.79904174804688 L546.434326171875,70.66802978515625 M572.830322265625,60.390594482421875 L572.572265625,60.06830596923828 L572.1407470703125,59.61305236816406 L571.54736328125,59.146080017089844 L570.8369750976562,58.850318908691406 L569.9905395507812,58.80210876464844 L568.9827270507812,59.04519271850586 L567.8283081054688,59.59211349487305 L566.6231689453125,60.46826934814453 L565.4692993164062,61.650306701660156 L564.4962158203125,63.08734130859375 L563.8212890625,64.70174407958984 L563.4962768554688,66.37064361572266 L563.5592041015625,67.94377136230469 L564.021728515625,69.26335144042969 L564.8427124023438,70.17412567138672 L565.98779296875,70.58522033691406 L567.3906860351562,70.46731567382812 L568.9521484375,69.85025787353516 L570.5623168945312,68.80074310302734 L572.1152954101562,67.40750122070312 L573.50537109375,65.76199340820312 L574.6685791015625,63.9893913269043 L575.5711669921875,62.241519927978516 L576.2105712890625,60.69039535522461 L576.6004028320312,59.4716796875 L576.7819213867188,58.64620590209961 L576.814208984375,58.22132110595703 L576.76416015625,58.18169021606445 L576.6788940429688,58.522613525390625 L576.6005859375,59.264015197753906 L576.5517578125,60.38408279418945 L576.5565185546875,61.79049301147461 L576.65625,63.3701286315918 L576.884765625,64.98652648925781 L577.2503051757812,66.52505493164062 L577.73095703125,67.89104461669922 L578.2713623046875,69.01525115966797 L578.7932739257812,69.85429382324219 L579.233642578125,70.4086685180664 L579.5569458007812,70.71236419677734 L579.7670288085938,70.83895111083984 L579.8805541992188,70.84748840332031 L579.9324340820312,70.81243896484375 L579.9481201171875,70.77914428710938 M597.7525634765625,58.95928192138672 L597.74755859375,58.9826545715332 L597.797119140625,59.13214111328125 L597.9334106445312,59.5172119140625 L598.1517333984375,60.23768615722656 L598.4257202148438,61.3433837890625 L598.7171630859375,62.80900573730469 L599.008544921875,64.54159545898438 L599.348876953125,66.40853881835938 L599.7586669921875,68.22674560546875 L600.2097778320312,69.81788635253906 L600.6665649414062,71.04029846191406 L601.079345703125,71.78077697753906 L601.42626953125,71.97295379638672 L601.7603149414062,71.59976959228516 L602.143310546875,70.67692565917969 L602.6246337890625,69.29008483886719 L603.243896484375,67.56744384765625 L603.9891357421875,65.64579010009766 L604.8275756835938,63.648136138916016 L605.71337890625,61.696868896484375 L606.5896606445312,59.90268325805664 L607.380126953125,58.38920211791992 L608.0511474609375,57.22722625732422 L608.5638427734375,56.50031280517578 L608.9202880859375,56.2248649597168 L609.1376953125,56.3687744140625 L609.2503051757812,56.69792175292969 L609.28515625,57.0175666809082 M608.2443237304688,66.08446502685547 L608.5913696289062,65.93116760253906 L609.2269287109375,65.67222595214844 L610.140380859375,65.33309173583984 L611.20556640625,64.95361328125 L612.364013671875,64.52159118652344 L613.545166015625,64.01469421386719 L614.6859130859375,63.409034729003906 L615.7279663085938,62.72490692138672 L616.6156005859375,62.006126403808594 L617.266357421875,61.278831481933594 L617.6334838867188,60.563819885253906 L617.6824951171875,59.88552474975586 L617.39306640625,59.280941009521484 L616.7937622070312,58.812374114990234 L615.933837890625,58.55414581298828 L614.8541259765625,58.54729080200195 L613.612060546875,58.816680908203125 L612.2816162109375,59.367916107177734 L610.9381103515625,60.17837905883789 L609.6839599609375,61.20900344848633 L608.6341552734375,62.412200927734375 L607.8919677734375,63.72072219848633 L607.5255126953125,65.06511688232422 L607.5849609375,66.37905883789062 L608.0592041015625,67.59715270996094 L608.9093017578125,68.65834045410156 L610.0924072265625,69.51166534423828 L611.561767578125,70.11784362792969 L613.2398071289062,70.44694519042969 L615.051025390625,70.50621032714844 L616.8797607421875,70.33139038085938 L618.638916015625,69.89933013916016 L620.2454223632812,69.22284698486328 L621.6350708007812,68.33570098876953 L622.630615234375,67.505126953125 L623.1983032226562,66.92170715332031 M623.7412719726562,59.38330078125 L623.8436279296875,59.54705810546875 L624.0294189453125,59.9185905456543 L624.274169921875,60.55604553222656 L624.5100708007812,61.45477294921875 L624.689453125,62.582340240478516 L624.7730712890625,63.864376068115234 L624.76806640625,65.19454956054688 L624.7017822265625,66.44803619384766 L624.6072998046875,67.49771881103516 L624.5164794921875,68.27733612060547 L624.4502563476562,68.75267791748047 L624.4016723632812,68.91028594970703 L624.3643188476562,68.7193374633789 L624.3499755859375,68.1379623413086 L624.371337890625,67.14545440673828 L624.4627075195312,65.85037231445312 L624.65869140625,64.39323425292969 L624.9697265625,62.9202880859375 L625.411865234375,61.53335189819336 L626.0097045898438,60.28960037231445 L626.77392578125,59.209869384765625 L627.715576171875,58.345252990722656 L628.8304443359375,57.71269607543945 L630.087646484375,57.32322311401367 L631.4144287109375,57.15559005737305 L632.7034301757812,57.17000961303711 L633.6986083984375,57.26377868652344 L634.292724609375,57.3607177734375 M636.48828125,57.3394775390625 L636.5697021484375,57.59946823120117 L636.7601318359375,58.083656311035156 L637.0873413085938,58.79812240600586 L637.556396484375,59.6788330078125 L638.152587890625,60.69864273071289 L638.8477783203125,61.79503631591797 L639.6047973632812,62.9101448059082 L640.4351806640625,63.954463958740234 L641.328125,64.8359375 L642.2728881835938,65.487548828125 L643.0640258789062,65.88042449951172 L643.5831298828125,66.05160522460938 M649.6995849609375,57.21551513671875 L649.51513671875,57.507144927978516 L649.1681518554688,58.05902099609375 L648.6567993164062,58.89264678955078 L648.01611328125,59.93754577636719 L647.2261352539062,61.168434143066406 L646.2952880859375,62.54670333862305 L645.24267578125,64.05188751220703 L644.1287841796875,65.63748931884766 L643.0209350585938,67.26498413085938 L641.9680786132812,68.85930633544922 L640.9804077148438,70.36041259765625 L640.0828857421875,71.68951416015625 L639.313720703125,72.7850112915039 L638.720703125,73.59783172607422 L638.345458984375,74.09864044189453 L638.1665649414062,74.33003234863281 " fill="none" stroke="black" stroke-linecap="round" stroke-width="1" /><path d="M0,0 M396.07513427734375,105.0 L396.08734130859375,105.03934478759766 L396.111328125,105.23717498779297 L396.1366882324219,105.71477508544922 L396.1419677734375,106.55665588378906 L396.0876770019531,107.75041961669922 L395.99560546875,109.2554702758789 L395.89178466796875,111.01480102539062 L395.7992248535156,112.97627258300781 L395.7540283203125,115.12995910644531 L395.7674255371094,117.45399475097656 L395.8267517089844,119.90048217773438 L395.9093017578125,122.41087341308594 L395.9960632324219,124.88716888427734 L396.06591796875,127.2319564819336 L396.1418762207031,129.34840393066406 L396.2322692871094,131.1219482421875 L396.3400573730469,132.4758758544922 L396.44720458984375,133.3881072998047 L396.5547180175781,133.88710021972656 L396.6800537109375,133.93650817871094 L396.86944580078125,133.51364135742188 L397.1330871582031,132.6178741455078 L397.3920593261719,131.632080078125 L397.58026123046875,130.86436462402344 M406.1894226074219,105.12963104248047 L406.1716003417969,105.70209503173828 L406.1302185058594,106.748291015625 L406.0664367675781,108.25424194335938 L405.9685363769531,110.0605697631836 L405.8267517089844,112.11847686767578 L405.6672668457031,114.38920593261719 L405.5315246582031,116.83792114257812 L405.4436950683594,119.38531494140625 L405.4635314941406,121.92608642578125 L405.5787353515625,124.30586242675781 L405.7627258300781,126.38396453857422 L405.9671936035156,128.04920959472656 L406.14093017578125,129.24383544921875 L406.24285888671875,129.99122619628906 L406.292236328125,130.37657165527344 L406.3006896972656,130.5185546875 M395.2458801269531,120.05570220947266 L395.45465087890625,119.9892349243164 L396.01812744140625,119.88027954101562 L397.0479431152344,119.74840545654297 L398.6169738769531,119.61006927490234 L400.62384033203125,119.46234893798828 L402.85430908203125,119.29158782958984 L404.7192077636719,119.13410949707031 L405.9136962890625,119.01920318603516 M421.7549743652344,119.10882568359375 L421.40252685546875,118.90827178955078 L420.765869140625,118.64800262451172 L419.8536682128906,118.41694641113281 L418.78094482421875,118.35783386230469 L417.6153564453125,118.53556823730469 L416.4300842285156,118.99604034423828 L415.31341552734375,119.74589538574219 L414.33758544921875,120.79151153564453 L413.55718994140625,122.08448791503906 L413.0248718261719,123.57372283935547 L412.7808532714844,125.17524719238281 L412.82354736328125,126.7739028930664 L413.163330078125,128.2318115234375 L413.78387451171875,129.4017791748047 L414.656982421875,130.15298461914062 L415.77691650390625,130.41876220703125 L417.10076904296875,130.16714477539062 L418.5404052734375,129.4110565185547 L420.0094909667969,128.21798706054688 L421.39215087890625,126.67938232421875 L422.5816345214844,124.93150329589844 L423.5337829589844,123.1329116821289 L424.2026062011719,121.44166564941406 L424.5871887207031,119.9858627319336 L424.755126953125,118.8653793334961 L424.7626647949219,118.12886810302734 L424.6902770996094,117.81922149658203 L424.58929443359375,117.94361114501953 L424.4881591796875,118.52267456054688 L424.3978271484375,119.52456665039062 L424.36737060546875,120.86676788330078 L424.42755126953125,122.40814208984375 L424.631591796875,124.00460815429688 L424.9798583984375,125.48664855957031 L425.4913330078125,126.75530242919922 L426.15869140625,127.71263122558594 L426.95428466796875,128.3151397705078 L427.8121032714844,128.5687255859375 L428.5283508300781,128.59893798828125 L428.977294921875,128.52842712402344 M435.1358642578125,119.21453094482422 L435.15252685546875,119.47058868408203 L435.1558532714844,120.00151062011719 L435.1346130371094,120.86518096923828 L435.0755615234375,122.03864288330078 L434.98028564453125,123.50554656982422 L434.8413391113281,125.23938751220703 L434.6708984375,127.20387268066406 L434.4720153808594,129.3520965576172 L434.25994873046875,131.6138153076172 L434.063232421875,133.88177490234375 L433.90643310546875,136.00096130371094 L433.7887268066406,137.79124450683594 L433.72735595703125,139.12185668945312 L433.73028564453125,139.94918823242188 L433.771484375,140.27635192871094 L433.82666015625,140.14950561523438 L433.8667297363281,139.5751495361328 L433.85089111328125,138.53289794921875 L433.7732238769531,137.06396484375 L433.6651306152344,135.27108764648438 L433.57501220703125,133.27102661132812 L433.54071044921875,131.17880249023438 L433.6123046875,129.06069946289062 L433.8099365234375,126.95801544189453 L434.1388854980469,124.91399383544922 L434.623291015625,122.99272918701172 L435.298095703125,121.25670623779297 L436.1785888671875,119.76319122314453 L437.29022216796875,118.56048583984375 L438.6175231933594,117.67841339111328 L440.10882568359375,117.12249755859375 L441.7095947265625,116.90434265136719 L443.351806640625,117.02678680419922 L444.945068359375,117.48292541503906 L446.400390625,118.24453735351562 L447.5975036621094,119.24150848388672 L448.436767578125,120.38107299804688 L448.86260986328125,121.56885528564453 L448.86175537109375,122.7166748046875 L448.43017578125,123.75918579101562 L447.6100158691406,124.65507507324219 L446.4310607910156,125.37149047851562 L444.97760009765625,125.90106964111328 L443.3616943359375,126.23188018798828 L441.701416015625,126.3552474975586 L440.11749267578125,126.29330444335938 L438.7164306640625,126.09144592285156 L437.5630187988281,125.79109954833984 L436.7239074707031,125.46263122558594 L436.2160949707031,125.1409683227539 L435.9770812988281,124.88907623291016 L435.9173583984375,124.7371826171875 M451.62445068359375,117.35073852539062 L451.5770263671875,117.69905853271484 L451.5050964355469,118.39647674560547 L451.4241027832031,119.49497985839844 L451.3512268066406,120.95553588867188 L451.28076171875,122.77223205566406 L451.190185546875,124.9190673828125 L451.073486328125,127.35122680664062 L450.91351318359375,129.9758758544922 L450.71966552734375,132.6508331298828 L450.5106201171875,135.1744842529297 L450.3189697265625,137.32077026367188 L450.17132568359375,138.939208984375 L450.0943603515625,139.94583129882812 L450.0708312988281,140.33775329589844 L450.0726013183594,140.150634765625 L450.06597900390625,139.4169158935547 L450.02886962890625,138.15594482421875 L449.9683532714844,136.4683380126953 L449.927001953125,134.46839904785156 L449.933837890625,132.27163696289062 L450.01922607421875,129.9698028564453 L450.21661376953125,127.64372253417969 L450.5661926269531,125.35720825195312 L451.10003662109375,123.19538116455078 L451.85540771484375,121.23773193359375 L452.84027099609375,119.53855895996094 L454.041748046875,118.14444732666016 L455.438720703125,117.1094970703125 L457.01788330078125,116.47933197021484 L458.69195556640625,116.26898193359375 L460.3567199707031,116.4749526977539 L461.8864440917969,117.04437255859375 L463.15692138671875,117.91781616210938 L464.0869445800781,119.01649475097656 L464.65142822265625,120.25304412841797 L464.82537841796875,121.53006744384766 L464.61395263671875,122.76009368896484 L464.0347595214844,123.8552474975586 L463.1384582519531,124.76007843017578 L462.00579833984375,125.42606353759766 L460.7118225097656,125.82124328613281 L459.35009765625,125.94772338867188 L457.9894714355469,125.82392883300781 L456.7174072265625,125.4576416015625 L455.64544677734375,124.89679718017578 L454.8645935058594,124.2133560180664 L454.4021301269531,123.6080551147461 L454.2115478515625,123.20962524414062 M467.816650390625,116.04383850097656 L467.8348693847656,116.35221862792969 L467.89532470703125,116.95321655273438 L468.00836181640625,117.8421630859375 L468.18072509765625,118.91519165039062 L468.43780517578125,120.11860656738281 L468.7806396484375,121.38240051269531 L469.21441650390625,122.6570816040039 L469.7706298828125,123.8883056640625 L470.42425537109375,124.97899627685547 L471.1554870605469,125.82571411132812 L471.96014404296875,126.37077331542969 L472.8199157714844,126.53582763671875 L473.731689453125,126.27389526367188 L474.7327880859375,125.56652069091797 L475.7984924316406,124.4385757446289 L476.89947509765625,122.98291015625 L477.97772216796875,121.37281036376953 L478.95556640625,119.76726531982422 L479.75347900390625,118.32842254638672 L480.3486328125,117.16358184814453 L480.7379150390625,116.33771514892578 L480.9423828125,115.87435913085938 L480.9940490722656,115.80696105957031 L480.907958984375,116.14350891113281 L480.69171142578125,116.93009185791016 L480.37982177734375,118.17887878417969 L480.02386474609375,119.85574340820312 L479.6458435058594,121.89016723632812 L479.27734375,124.21759033203125 L478.919677734375,126.75725555419922 L478.57183837890625,129.4585418701172 L478.2312927246094,132.2474822998047 L477.9156188964844,135.02346801757812 L477.6143798828125,137.66189575195312 L477.346923828125,140.0472869873047 L477.130859375,142.08103942871094 L476.9745178222656,143.68907165527344 L476.8778076171875,144.85174560546875 L476.83746337890625,145.55874633789062 L476.8253173828125,145.89007568359375 M497.8119201660156,112.87588500976562 L497.79296875,113.6888656616211 L497.7464294433594,115.00711822509766 L497.6748352050781,116.72720336914062 L497.586181640625,118.59208679199219 L497.50189208984375,120.57275390625 L497.44512939453125,122.61711120605469 L497.4346923828125,124.6806411743164 L497.4734191894531,126.64009094238281 L497.55816650390625,128.4205322265625 L497.65814208984375,129.9597930908203 L497.7432861328125,131.2203826904297 L497.81121826171875,132.1131591796875 L497.8865966796875,132.57247924804688 L497.97503662109375,132.5735321044922 L498.0638427734375,132.32586669921875 L498.13092041015625,132.03587341308594 M506.3192138671875,109.6123046875 L506.35626220703125,109.89439392089844 L506.44183349609375,110.46988677978516 L506.56414794921875,111.37682342529297 L506.69244384765625,112.57714080810547 L506.79364013671875,114.05671691894531 L506.82940673828125,115.7767562866211 L506.7995300292969,117.70098114013672 L506.7501220703125,119.76689147949219 L506.7298583984375,121.89667510986328 L506.76190185546875,124.00081634521484 L506.84136962890625,125.98977661132812 L506.94085693359375,127.76535034179688 L507.0331115722656,129.2176513671875 L507.1138000488281,130.29042053222656 L507.2028503417969,130.978515625 L507.270751953125,131.2270965576172 L507.29400634765625,131.0332489013672 L507.2586669921875,130.43563842773438 L507.1893310546875,129.73060607910156 L507.1220703125,129.17282104492188 M497.428466796875,121.56288146972656 L497.546630859375,121.61174774169922 L497.97357177734375,121.68357849121094 L498.86859130859375,121.75707244873047 L500.27386474609375,121.79151153564453 L502.0677185058594,121.76924133300781 L504.0321044921875,121.69135284423828 L505.99713134765625,121.57654571533203 L507.87591552734375,121.44287109375 L509.617919921875,121.31443786621094 L511.17449951171875,121.20199584960938 L512.32861328125,121.12352752685547 L512.9948120117188,121.0809555053711 M521.616943359375,122.06736755371094 L521.52734375,121.91931915283203 L521.3389282226562,121.69426727294922 L521.01171875,121.4573974609375 L520.52294921875,121.32295227050781 L519.8439331054688,121.3841781616211 L519.0096435546875,121.71820831298828 L518.0902709960938,122.34854125976562 L517.185546875,123.26085662841797 L516.4050903320312,124.39944458007812 L515.8233032226562,125.67516326904297 L515.481689453125,127.00241088867188 L515.4380493164062,128.29678344726562 L515.7392578125,129.4678192138672 L516.4066772460938,130.41571044921875 L517.4586181640625,131.05813598632812 L518.8311157226562,131.33180236816406 L520.4058227539062,131.21115112304688 L522.064453125,130.7084197998047 L523.6865234375,129.87489318847656 L525.1372680664062,128.75515747070312 L526.3341064453125,127.4229507446289 L527.1910400390625,125.96695709228516 L527.6439819335938,124.4832534790039 L527.6822509765625,123.06846618652344 L527.3468017578125,121.82040405273438 L526.70068359375,120.78965759277344 L525.8779296875,120.02507781982422 L525.02001953125,119.55367279052734 L524.260986328125,119.3600845336914 L523.68359375,119.38363647460938 L523.3341064453125,119.50305938720703 L523.1715087890625,119.61317443847656 M532.69140625,108.24626922607422 L532.5592651367188,108.49520874023438 L532.398681640625,109.01612091064453 L532.272216796875,109.86915588378906 L532.2303466796875,111.03270721435547 L532.2385864257812,112.49224853515625 L532.2442626953125,114.2178955078125 L532.2176513671875,116.1738052368164 L532.1554565429688,118.29178619384766 L532.0916137695312,120.49784088134766 L532.055419921875,122.68758392333984 L532.082275390625,124.75579071044922 L532.2196044921875,126.61427307128906 L532.4981079101562,128.19203186035156 L532.936279296875,129.43218994140625 L533.5509643554688,130.3007049560547 L534.3358764648438,130.7545623779297 L535.2998046875,130.76942443847656 L536.4774169921875,130.35353088378906 L537.8298950195312,129.54945373535156 L539.3071899414062,128.45034790039062 L540.814453125,127.17532348632812 L542.2242431640625,125.83099365234375 L543.436767578125,124.54624938964844 L544.3928833007812,123.44338989257812 L545.0459594726562,122.60796356201172 L545.4207763671875,122.08736419677734 L545.568603515625,121.892578125 L545.5545043945312,122.00308990478516 L545.44580078125,122.42770385742188 L545.28515625,123.17597198486328 L545.1030883789062,124.20984649658203 L544.9293823242188,125.4505615234375 L544.7946166992188,126.78642272949219 L544.724609375,128.0845489501953 L544.7472534179688,129.25555419921875 L544.86767578125,130.1714324951172 L545.0635986328125,130.72531127929688 L545.2890014648438,130.87405395507812 L545.4754638671875,130.76626586914062 L545.5845947265625,130.57180786132812 M545.1734008789062,113.3073501586914 L545.1533813476562,113.17375946044922 L545.17138671875,113.05579376220703 L545.21630859375,112.98639678955078 L545.2769775390625,112.9985122680664 M556.031982421875,123.63607025146484 L555.9647827148438,123.41883850097656 L555.805419921875,123.06376647949219 L555.5148315429688,122.6325454711914 L555.0739135742188,122.2542724609375 L554.4610595703125,122.0283432006836 L553.7081298828125,122.03913879394531 L552.8687744140625,122.31907653808594 L552.0150756835938,122.8797378540039 L551.2254028320312,123.6937255859375 L550.5796508789062,124.72334289550781 L550.1399536132812,125.92601013183594 L549.9658813476562,127.21168518066406 L550.1044311523438,128.4553680419922 L550.587158203125,129.52374267578125 L551.4005737304688,130.27761840820312 L552.4967651367188,130.63058471679688 L553.7948608398438,130.5318145751953 L555.1838989257812,129.95335388183594 L556.5521850585938,128.9102020263672 L557.822265625,127.46898651123047 L558.9229736328125,125.71748352050781 L559.818359375,123.76898193359375 L560.5179443359375,121.72455596923828 L561.0505981445312,119.65872192382812 L561.457763671875,117.6564712524414 L561.7798461914062,115.80925750732422 L562.021728515625,114.22171020507812 L562.172119140625,112.9687271118164 L562.2507934570312,112.0909423828125 L562.2686767578125,111.57981872558594 L562.2428588867188,111.44680786132812 L562.1661376953125,111.70177459716797 L562.0245361328125,112.4033203125 L561.816162109375,113.56710815429688 L561.59423828125,115.16899871826172 L561.4131469726562,117.10745239257812 L561.326416015625,119.25174713134766 L561.3428955078125,121.44078826904297 L561.4586181640625,123.54618072509766 L561.6641845703125,125.45393371582031 L561.9478759765625,127.09112548828125 L562.2930297851562,128.4046173095703 L562.6626586914062,129.38255310058594 L563.0172729492188,129.99688720703125 L563.3416137695312,130.24559020996094 L563.6422119140625,130.1623992919922 L563.875732421875,129.9274139404297 L564.0283813476562,129.69398498535156 M572.47119140625,122.35488891601562 L572.3255615234375,122.22926330566406 L572.0346069335938,122.06710052490234 L571.5567626953125,121.9483871459961 L570.901611328125,121.99845123291016 L570.0924072265625,122.3118667602539 L569.1697998046875,122.92705535888672 L568.2431640625,123.83076477050781 L567.4395751953125,124.9540786743164 L566.86474609375,126.17832946777344 L566.6168823242188,127.36925506591797 L566.734130859375,128.41525268554688 L567.210205078125,129.21815490722656 L568.0385131835938,129.71192932128906 L569.1507568359375,129.84417724609375 L570.4541015625,129.5922393798828 L571.8275756835938,128.9539337158203 L573.113525390625,127.97278594970703 L574.178466796875,126.73330688476562 L574.9560546875,125.35147857666016 L575.42236328125,123.97742462158203 L575.6188354492188,122.75749206542969 L575.620849609375,121.79539489746094 L575.5067138671875,121.15785217285156 L575.3416137695312,120.8614730834961 L575.1762084960938,120.8970718383789 L575.042724609375,121.28196716308594 L574.9476318359375,122.0046157836914 L574.9212646484375,123.01667022705078 L575.0030517578125,124.23617553710938 L575.2420654296875,125.53253173828125 L575.6728515625,126.77799987792969 L576.322509765625,127.8798828125 L577.1640014648438,128.75978088378906 L578.1566772460938,129.3477783203125 L579.2495727539062,129.59689331054688 L580.3783569335938,129.46188354492188 L581.4816284179688,128.94581604003906 L582.5227661132812,128.08872985839844 L583.4581909179688,126.97573852539062 L584.2494506835938,125.7076644897461 L584.864990234375,124.40474700927734 L585.267822265625,123.1707534790039 L585.4678955078125,122.11509704589844 L585.52099609375,121.29935455322266 L585.4757690429688,120.7623519897461 L585.3804321289062,120.52259826660156 L585.235595703125,120.59159088134766 L585.0364990234375,120.97742462158203 L584.8231811523438,121.68952941894531 L584.6715698242188,122.66282653808594 L584.657958984375,123.78852844238281 L584.850341796875,124.92585754394531 L585.2496337890625,125.92947387695312 L585.8532104492188,126.6805191040039 L586.6378173828125,127.10540008544922 L587.5712890625,127.1526870727539 L588.634765625,126.8229751586914 L589.78662109375,126.15222930908203 L590.9456787109375,125.2213363647461 L592.0473022460938,124.13634490966797 L592.996337890625,123.02252197265625 L593.7208251953125,122.0037612915039 L594.19775390625,121.17761993408203 L594.4465942382812,120.59526824951172 L594.498779296875,120.30131530761719 L594.438232421875,120.33763122558594 L594.323486328125,120.7581787109375 L594.2041625976562,121.61048126220703 L594.1176147460938,122.89189147949219 L594.099365234375,124.53912353515625 L594.131103515625,126.46732330322266 L594.2215576171875,128.59352111816406 L594.3389282226562,130.83883666992188 L594.455078125,133.125 L594.5402221679688,135.34765625 L594.5662841796875,137.37754821777344 L594.4865112304688,139.0977783203125 L594.2979736328125,140.43055725097656 L593.9775390625,141.3395538330078 L593.5308227539062,141.82911682128906 L592.9483032226562,141.90611267089844 L592.2235107421875,141.5843505859375 L591.3683471679688,140.9188232421875 L590.41845703125,139.92181396484375 L589.435546875,138.67239379882812 L588.5225830078125,137.29067993164062 L587.8417358398438,136.1247100830078 L587.4494018554688,135.36727905273438 M606.279541015625,119.13656616210938 L606.0877075195312,118.92047882080078 L605.7079467773438,118.64024353027344 L605.1004028320312,118.4056167602539 L604.2836303710938,118.35994720458984 L603.2705688476562,118.53577423095703 L602.1593017578125,118.9342041015625 L601.0673217773438,119.50421142578125 L600.1771240234375,120.20376586914062 L599.6351318359375,121.0049819946289 L599.547119140625,121.8727035522461 L599.9418334960938,122.78208923339844 L600.8167724609375,123.70390319824219 L602.08837890625,124.59022521972656 L603.6883544921875,125.41561126708984 L605.4971923828125,126.19500732421875 L607.358154296875,126.94420623779297 L609.0685424804688,127.6741943359375 L610.4440307617188,128.3755340576172 L611.33056640625,129.00962829589844 L611.6821899414062,129.53616333007812 L611.5056762695312,129.94766235351562 L610.8359985351562,130.2501220703125 L609.7063598632812,130.43362426757812 L608.22216796875,130.50856018066406 L606.5274658203125,130.46728515625 L604.8251342773438,130.29678344726562 L603.3012084960938,130.02407836914062 L602.1011962890625,129.6806182861328 L601.2723388671875,129.30316162109375 L600.8245239257812,128.95420837402344 L600.6534423828125,128.69866943359375 L600.638427734375,128.5511932373047 M616.6737060546875,105.8535385131836 L616.704345703125,105.85690307617188 L616.7658081054688,105.90108489990234 L616.8419799804688,106.06155395507812 L616.90185546875,106.42280578613281 L616.9190063476562,107.04839324951172 L616.8783569335938,107.9258804321289 L616.8287353515625,109.0208740234375 L616.820556640625,110.28591918945312 L616.8801879882812,111.67840576171875 L617.0110473632812,113.1640396118164 L617.1798706054688,114.69274139404297 L617.3295288085938,116.19599914550781 L617.4449462890625,117.62686920166016 L617.51708984375,118.94430541992188 L617.5454711914062,120.09141540527344 L617.5527954101562,121.03462219238281 L617.5592651367188,121.7480239868164 L617.5741577148438,122.23035430908203 L617.5983276367188,122.50296020507812 L617.62255859375,122.62493133544922 M614.7650756835938,130.8553466796875 L614.791015625,130.8961944580078 L614.8202514648438,130.9337615966797 L614.83837890625,130.95831298828125 L614.837158203125,130.95718383789062 L614.825927734375,130.9552459716797 L614.8062744140625,130.95130920410156 L614.7932739257812,130.9510040283203 L614.784912109375,130.9371795654297 L614.7830810546875,130.91494750976562 L614.800048828125,130.88494873046875 L614.8228759765625,130.8559112548828 L614.8421020507812,130.8256378173828 L614.85400390625,130.80026245117188 L614.8531494140625,130.77920532226562 L614.8464965820312,130.7672882080078 L614.8460693359375,130.76287841796875 M621.7896118164062,106.35966491699219 L621.8073120117188,106.436767578125 L621.8388671875,106.63690948486328 L621.8612060546875,107.03509521484375 L621.8514404296875,107.68081665039062 L621.7659301757812,108.6043930053711 L621.5864868164062,109.80506896972656 L621.312255859375,111.27007293701172 L620.9556884765625,112.95623016357422 L620.533203125,114.81990814208984 L620.0990600585938,116.78733825683594 L619.693359375,118.76343536376953 L619.37890625,120.637451171875 L619.1937255859375,122.30209350585938 L619.1359252929688,123.6779556274414 L619.2020263671875,124.7285385131836 L619.3977661132812,125.37162017822266 L619.7102661132812,125.56658172607422 L620.115234375,125.3143081665039 L620.4857788085938,124.86470794677734 L620.7320556640625,124.4532241821289 " fill="none" stroke="black" stroke-linecap="round" stroke-width="1" /><path d="M0,0 M357.4844665527344,165.08560180664062 L357.45166015625,165.0 L357.4280700683594,165.00482177734375 L357.4269104003906,165.24745178222656 L357.4537353515625,165.88580322265625 L357.47821044921875,166.96893310546875 L357.47308349609375,168.4817657470703 L357.4275817871094,170.38816833496094 L357.34375,172.64503479003906 L357.215576171875,175.16795349121094 L357.05572509765625,177.87118530273438 L356.8717041015625,180.643310546875 L356.6745910644531,183.37979125976562 L356.4813537597656,186.002197265625 L356.3076477050781,188.43006896972656 L356.17108154296875,190.55740356445312 L356.1163024902344,192.28994750976562 L356.16082763671875,193.5579833984375 L356.2700500488281,194.36207580566406 L356.3856506347656,194.7740936279297 L356.4618225097656,194.92601013183594 M376.06890869140625,165.05931091308594 L376.1431579589844,165.33462524414062 L376.2493591308594,165.9469757080078 L376.33746337890625,166.98448181152344 L376.36041259765625,168.43838500976562 L376.3084411621094,170.29209899902344 L376.20159912109375,172.4896697998047 L376.10308837890625,174.95315551757812 L376.0257873535156,177.58335876464844 L375.9657287597656,180.27003479003906 L375.91357421875,182.8763885498047 L375.86749267578125,185.2959442138672 L375.8350524902344,187.42738342285156 L375.8392333984375,189.17294311523438 L375.8623046875,190.48008728027344 L375.8944091796875,191.36865234375 L375.90411376953125,191.8533935546875 L375.8814392089844,191.94927978515625 L375.85272216796875,191.6405487060547 L375.8884582519531,190.88162231445312 L376.0565185546875,189.65350341796875 L376.4371643066406,188.05751037597656 L377.05853271484375,186.21957397460938 L377.90325927734375,184.268310546875 L378.94537353515625,182.34124755859375 L380.15057373046875,180.5657501220703 L381.45416259765625,179.03890991210938 L382.7976379394531,177.88259887695312 L384.1036071777344,177.16798400878906 L385.31719970703125,176.90859985351562 L386.4029541015625,177.1143798828125 L387.35577392578125,177.7797393798828 L388.16009521484375,178.8710174560547 L388.79364013671875,180.34564208984375 L389.23095703125,182.12136840820312 L389.5030517578125,184.0768280029297 L389.64593505859375,186.0823974609375 L389.73944091796875,187.98416137695312 L389.8313293457031,189.64634704589844 L389.9346923828125,190.97030639648438 L390.063232421875,191.84149169921875 L390.24169921875,192.2049102783203 L390.4770202636719,192.0879669189453 L390.7103271484375,191.73973083496094 L390.8851623535156,191.39450073242188 M400.94512939453125,179.87911987304688 L400.8372497558594,179.60147094726562 L400.60211181640625,179.22793579101562 L400.1783752441406,178.880126953125 L399.5264892578125,178.7344207763672 L398.630126953125,178.85409545898438 L397.5238952636719,179.284912109375 L396.30389404296875,180.01585388183594 L395.1120300292969,181.0592041015625 L394.0498046875,182.37660217285156 L393.21551513671875,183.9098663330078 L392.6854553222656,185.55555725097656 L392.5041809082031,187.2029266357422 L392.7240905761719,188.6983642578125 L393.3637390136719,189.92001342773438 L394.3814392089844,190.7555389404297 L395.7237548828125,191.15151977539062 L397.3179931640625,191.07102966308594 L399.05023193359375,190.5422821044922 L400.8100280761719,189.6081085205078 L402.4408874511719,188.34796142578125 L403.7879333496094,186.86343383789062 L404.730712890625,185.28871154785156 L405.2302551269531,183.74375915527344 L405.2743225097656,182.34825134277344 L404.9122619628906,181.18641662597656 L404.1971435546875,180.29600524902344 L403.204345703125,179.6875762939453 L402.0296936035156,179.37196350097656 L400.81829833984375,179.31991577148438 L399.7012634277344,179.47552490234375 L398.88458251953125,179.698974609375 L398.42584228515625,179.87924194335938 M409.7306213378906,178.5164794921875 L409.775390625,178.7469024658203 L409.8347473144531,179.25497436523438 L409.8717041015625,180.12887573242188 L409.8569641113281,181.3824462890625 L409.78851318359375,183.05203247070312 L409.65167236328125,185.12722778320312 L409.43609619140625,187.54029846191406 L409.1448974609375,190.18299865722656 L408.7666320800781,192.9226837158203 L408.3438720703125,195.60670471191406 L407.9307861328125,198.0985107421875 L407.57757568359375,200.23143005371094 L407.33514404296875,201.8691864013672 L407.211669921875,202.92437744140625 L407.19293212890625,203.3678436279297 L407.2450256347656,203.21775817871094 L407.3250732421875,202.49224853515625 L407.40753173828125,201.19493103027344 L407.50738525390625,199.41677856445312 L407.63897705078125,197.2790069580078 L407.83837890625,194.91957092285156 L408.12115478515625,192.47096252441406 L408.49591064453125,190.02882385253906 L408.9654235839844,187.65338134765625 L409.5719299316406,185.45132446289062 L410.32257080078125,183.49609375 L411.2339782714844,181.8509979248047 L412.32305908203125,180.55641174316406 L413.5821838378906,179.6249542236328 L415.00244140625,179.05844116210938 L416.5753173828125,178.86978149414062 L418.2283630371094,179.04229736328125 L419.8756408691406,179.55966186523438 L421.4023132324219,180.3726806640625 L422.6903991699219,181.4116973876953 L423.65960693359375,182.6072540283203 L424.26226806640625,183.88540649414062 L424.4873046875,185.183349609375 L424.3431701660156,186.4451141357422 L423.829345703125,187.60003662109375 L422.98089599609375,188.58409118652344 L421.84039306640625,189.33642578125 L420.4716491699219,189.81170654296875 L418.9605407714844,189.98855590820312 L417.39935302734375,189.88043212890625 L415.906494140625,189.53521728515625 L414.61328125,189.0374298095703 L413.6461486816406,188.45066833496094 L413.07440185546875,187.84249877929688 L412.88507080078125,187.23947143554688 L412.92254638671875,186.75868225097656 L413.0376281738281,186.45437622070312 M427.4918212890625,185.85675048828125 L427.9892578125,185.7915802001953 L428.8450927734375,185.6300048828125 L430.0041809082031,185.34249877929688 L431.28106689453125,184.9164276123047 L432.59722900390625,184.369384765625 L433.8642272949219,183.72950744628906 L435.0067138671875,183.04441833496094 L435.93475341796875,182.35264587402344 L436.5970153808594,181.69505310058594 L436.947998046875,181.09303283691406 L436.9604797363281,180.580810546875 L436.60931396484375,180.1827850341797 L435.9033203125,179.9519500732422 L434.8705749511719,179.93331909179688 L433.6045837402344,180.16404724121094 L432.2026062011719,180.65640258789062 L430.77252197265625,181.40623474121094 L429.4102478027344,182.38658142089844 L428.2216796875,183.56488037109375 L427.3035583496094,184.88607788085938 L426.7513122558594,186.27601623535156 L426.62799072265625,187.64918518066406 L426.9929504394531,188.91859436035156 L427.85186767578125,189.99359130859375 L429.1852722167969,190.80177307128906 L430.9314880371094,191.3004608154297 L432.954833984375,191.4958953857422 L435.1379089355469,191.40675354003906 L437.3321228027344,191.09451293945312 L439.3765563964844,190.62835693359375 L440.92041015625,190.185546875 L441.8379211425781,189.8760986328125 M463.07147216796875,167.08062744140625 L463.165771484375,167.41519165039062 L463.31201171875,168.1192626953125 L463.4508056640625,169.2554168701172 L463.5157165527344,170.7803497314453 L463.4797058105469,172.64649963378906 L463.31707763671875,174.7782440185547 L463.0743408203125,177.10067749023438 L462.80462646484375,179.53880310058594 L462.52874755859375,181.99871826171875 L462.2913513183594,184.3899383544922 L462.0926818847656,186.6024169921875 L461.9156799316406,188.52882385253906 L461.7651672363281,190.06507873535156 L461.64990234375,191.16702270507812 L461.57086181640625,191.81491088867188 L461.53753662109375,192.10647583007812 M455.97918701171875,180.94482421875 L456.1084289550781,180.95558166503906 L456.48004150390625,180.9769744873047 L457.2044677734375,181.0155029296875 L458.3201904296875,181.0641632080078 L459.75982666015625,181.1019287109375 L461.40814208984375,181.12535095214844 L463.12261962890625,181.12939453125 L464.76507568359375,181.07379150390625 L466.2205810546875,180.9315185546875 L467.4212646484375,180.67666625976562 L468.23870849609375,180.39683532714844 L468.67803955078125,180.1771240234375 M470.2518310546875,170.23309326171875 L470.300048828125,170.57420349121094 L470.3804626464844,171.23593139648438 L470.4981994628906,172.23052978515625 L470.62408447265625,173.48193359375 L470.7447204589844,174.9609375 L470.8438720703125,176.65048217773438 L470.8923645019531,178.5298309326172 L470.8732604980469,180.5352783203125 L470.8131103515625,182.56021118164062 L470.7208251953125,184.47378540039062 L470.6302185058594,186.1426239013672 L470.56695556640625,187.4770965576172 L470.5215759277344,188.4319610595703 L470.4786682128906,189.0039825439453 L470.4434509277344,189.21022033691406 L470.42474365234375,189.06344604492188 L470.4696044921875,188.55838012695312 L470.61578369140625,187.7181854248047 L470.8871765136719,186.6226806640625 L471.2911071777344,185.3710479736328 L471.8162841796875,184.0624542236328 L472.4452819824219,182.7740936279297 L473.173583984375,181.55624389648438 L473.9742431640625,180.4601287841797 L474.8381042480469,179.56451416015625 L475.7500915527344,178.92300415039062 L476.7012634277344,178.57728576660156 L477.6602783203125,178.55227661132812 L478.5869445800781,178.8548126220703 L479.4327392578125,179.48155212402344 L480.1510925292969,180.40841674804688 L480.71209716796875,181.57211303710938 L481.1206970214844,182.89068603515625 L481.38232421875,184.27371215820312 L481.51104736328125,185.62962341308594 L481.5545349121094,186.8794708251953 L481.544677734375,187.94219970703125 L481.53228759765625,188.76641845703125 L481.5354309082031,189.2948760986328 L481.55218505859375,189.55825805664062 M485.7529602050781,184.84938049316406 L486.1745300292969,184.75125122070312 L486.8987731933594,184.5502166748047 L487.87774658203125,184.22669982910156 L488.96038818359375,183.77850341796875 L490.06146240234375,183.2135467529297 L491.0849914550781,182.5387725830078 L491.9697570800781,181.78416442871094 L492.63848876953125,180.99530029296875 L493.0572509765625,180.23634338378906 L493.2047424316406,179.5548095703125 L493.03814697265625,179.0131378173828 L492.5246887207031,178.65997314453125 L491.6783447265625,178.5472412109375 L490.5422058105469,178.70433044433594 L489.2122802734375,179.16282653808594 L487.8052673339844,179.911865234375 L486.4283142089844,180.92437744140625 L485.1971435546875,182.1515350341797 L484.2364807128906,183.51686096191406 L483.6572265625,184.92254638671875 L483.55120849609375,186.28366088867188 L483.9717712402344,187.52041625976562 L484.9095458984375,188.5695037841797 L486.30615234375,189.3822021484375 L488.0644836425781,189.91380310058594 L490.06182861328125,190.1501007080078 L492.15869140625,190.12716674804688 L494.2267150878906,189.8911590576172 L496.1187744140625,189.51434326171875 L497.7173156738281,189.06277465820312 L498.82904052734375,188.66973876953125 L499.43487548828125,188.40797424316406 M511.7246398925781,179.39053344726562 L511.7864074707031,179.6262664794922 L511.90667724609375,180.10987854003906 L512.0650634765625,180.87086486816406 L512.2122802734375,181.87484741210938 L512.3085327148438,183.09619140625 L512.3409423828125,184.48260498046875 L512.3018798828125,185.95130920410156 L512.2232055664062,187.40306091308594 L512.125,188.69735717773438 L512.023193359375,189.72984313964844 L511.9339599609375,190.444091796875 L511.8655700683594,190.80856323242188 L511.81158447265625,190.8108673095703 L511.7679443359375,190.44461059570312 L511.75494384765625,189.6874237060547 L511.8040771484375,188.57691955566406 L511.9698181152344,187.22079467773438 L512.2830200195312,185.73329162597656 L512.7523193359375,184.2236785888672 L513.3587036132812,182.7740478515625 L514.0914306640625,181.42327880859375 L514.9173583984375,180.21865844726562 L515.8303833007812,179.24253845214844 L516.7875366210938,178.5423583984375 L517.7706909179688,178.160888671875 L518.7569580078125,178.1178741455078 L519.73583984375,178.4076385498047 L520.6729736328125,179.01278686523438 L521.541748046875,179.9070281982422 L522.2899169921875,181.02000427246094 L522.8998413085938,182.28097534179688 L523.349853515625,183.6127166748047 L523.6446533203125,184.95516967773438 L523.81201171875,186.26116943359375 L523.8731689453125,187.4712371826172 L523.8702392578125,188.51805114746094 L523.8457641601562,189.33604431152344 L523.8170166015625,189.8881378173828 L523.7955322265625,190.18707275390625 L523.7908935546875,190.30426025390625 M528.7594604492188,184.5806121826172 L528.9070434570312,184.59902954101562 L529.24609375,184.58984375 L529.8186645507812,184.51254272460938 L530.6041259765625,184.3169708251953 L531.5511474609375,183.98580932617188 L532.5804443359375,183.5066375732422 L533.6447143554688,182.89483642578125 L534.66552734375,182.16519165039062 L535.5614013671875,181.35337829589844 L536.2597045898438,180.5007781982422 L536.6845092773438,179.66018676757812 L536.78759765625,178.8812713623047 L536.570068359375,178.21424865722656 L536.0411376953125,177.69480895996094 L535.2288818359375,177.36520385742188 L534.1812133789062,177.2560577392578 L532.9521484375,177.3778839111328 L531.6213989257812,177.7389373779297 L530.2930908203125,178.32444763183594 L529.0797119140625,179.11146545410156 L528.066650390625,180.0846405029297 L527.29833984375,181.2100830078125 L526.8164672851562,182.4299774169922 L526.644775390625,183.69544982910156 L526.790771484375,184.9336700439453 L527.271728515625,186.08059692382812 L528.068115234375,187.091552734375 L529.1473388671875,187.93392944335938 L530.4910888671875,188.5625457763672 L532.058349609375,188.96807861328125 L533.7518920898438,189.1532745361328 L535.504638671875,189.10679626464844 L537.1935424804688,188.84954833984375 L538.7149047851562,188.43507385253906 L539.8365478515625,188.01882934570312 L540.4925537109375,187.71864318847656 M543.7598876953125,178.81475830078125 L543.70166015625,179.11959838867188 L543.638671875,179.71218872070312 L543.5948486328125,180.6083984375 L543.5958251953125,181.74514770507812 L543.63330078125,183.09048461914062 L543.710205078125,184.5543670654297 L543.850341796875,186.0337371826172 L544.0950927734375,187.3948211669922 L544.478515625,188.50071716308594 L545.007080078125,189.2544708251953 L545.6906127929688,189.6092529296875 L546.5081787109375,189.52432250976562 L547.4306640625,189.00558471679688 L548.4271240234375,188.08888244628906 L549.4365844726562,186.8618927001953 L550.3790893554688,185.4600372314453 L551.2056274414062,184.0424346923828 L551.858642578125,182.7467498779297 L552.3187255859375,181.67970275878906 L552.6080322265625,180.886474609375 L552.7489013671875,180.3925323486328 L552.779052734375,180.2295684814453 L552.7239990234375,180.43157958984375 L552.611083984375,181.04319763183594 L552.4881591796875,182.05894470214844 L552.4151611328125,183.38539123535156 L552.467529296875,184.8722686767578 L552.7223510742188,186.35154724121094 L553.1952514648438,187.6635284423828 L553.901123046875,188.70465087890625 L554.821533203125,189.4000701904297 L555.912841796875,189.69384765625 L557.1275634765625,189.55752563476562 L558.41552734375,188.9898681640625 L559.67626953125,188.03343200683594 L560.827880859375,186.76077270507812 L561.7775268554688,185.2701873779297 L562.4580078125,183.66522216796875 L562.8399658203125,182.04689025878906 L562.9371337890625,180.49346923828125 L562.790283203125,179.10719299316406 L562.480712890625,177.95948791503906 L562.1632080078125,177.1757354736328 L561.9383544921875,176.75892639160156 M580.0831298828125,179.26756286621094 L580.0813598632812,179.29986572265625 L580.0869140625,179.48631286621094 L580.0933837890625,179.94383239746094 L580.1021728515625,180.7394561767578 L580.106689453125,181.8307647705078 L580.1435546875,183.1207733154297 L580.2682495117188,184.47381591796875 L580.5564575195312,185.75379943847656 L581.0453491210938,186.84814453125 L581.750244140625,187.65757751464844 L582.6087036132812,188.09483337402344 L583.589111328125,188.10565185546875 L584.6535034179688,187.66311645507812 L585.80322265625,186.80104064941406 L587.0128784179688,185.60581970214844 L588.2308349609375,184.20005798339844 L589.3580322265625,182.72354125976562 L590.319580078125,181.3296661376953 L591.0497436523438,180.13502502441406 L591.5457153320312,179.2422332763672 L591.8103637695312,178.7035675048828 L591.861572265625,178.55123901367188 L591.7274780273438,178.81068420410156 L591.4334106445312,179.52944946289062 L590.990966796875,180.72047424316406 L590.455078125,182.36331176757812 L589.859619140625,184.3818359375 L589.2517700195312,186.70196533203125 L588.6546020507812,189.2489471435547 L588.0881958007812,191.9481964111328 L587.5499267578125,194.7040252685547 L587.0724487304688,197.3868865966797 L586.6824340820312,199.8498992919922 L586.40380859375,201.9513702392578 L586.2322998046875,203.60662841796875 L586.186767578125,204.7202606201172 L586.26416015625,205.27166748046875 L586.4547729492188,205.3106689453125 L586.6715087890625,205.0865478515625 L586.841064453125,204.81593322753906 M595.8190307617188,183.94395446777344 L595.9940185546875,184.11721801757812 L596.4330444335938,184.35952758789062 L597.228271484375,184.57785034179688 L598.3743896484375,184.650390625 L599.796142578125,184.51841735839844 L601.387451171875,184.15899658203125 L603.02099609375,183.60504150390625 L604.5765380859375,182.8944854736328 L605.9447631835938,182.06568908691406 L606.9988403320312,181.1796112060547 L607.6240234375,180.27511596679688 L607.753173828125,179.3990936279297 L607.3681640625,178.61343383789062 L606.5267333984375,177.9971923828125 L605.3179931640625,177.61488342285156 L603.84375,177.51806640625 L602.2039794921875,177.71803283691406 L600.4910278320312,178.2052001953125 L598.8128662109375,178.95510864257812 L597.3074951171875,179.94654846191406 L596.0880737304688,181.13320922851562 L595.2589111328125,182.44468688964844 L594.8890380859375,183.80239868164062 L594.98681640625,185.1168212890625 L595.5327758789062,186.30926513671875 L596.4896240234375,187.31480407714844 L597.7860107421875,188.0879364013672 L599.340576171875,188.60243225097656 L601.06005859375,188.8612518310547 L602.8543701171875,188.8769073486328 L604.6380004882812,188.6857452392578 L606.3865966796875,188.2869873046875 L608.0474853515625,187.71484375 L609.5569458007812,187.02796936035156 L610.6826171875,186.42445373535156 L611.3463134765625,186.02220153808594 M620.1895141601562,178.99856567382812 L620.0247802734375,178.80360412597656 L619.6666259765625,178.53651428222656 L619.05615234375,178.29171752929688 L618.1868286132812,178.22381591796875 L617.06640625,178.42108154296875 L615.764892578125,178.92120361328125 L614.362060546875,179.7046356201172 L612.9564208984375,180.74114990234375 L611.664306640625,181.96609497070312 L610.602294921875,183.3208770751953 L609.8826904296875,184.73013305664062 L609.5955810546875,186.0780487060547 L609.7698974609375,187.24525451660156 L610.3887939453125,188.12701416015625 L611.3995361328125,188.6328125 L612.732666015625,188.73284912109375 L614.29052734375,188.42459106445312 L615.9573974609375,187.7359619140625 L617.599853515625,186.73672485351562 L619.110107421875,185.51657104492188 L620.390625,184.1627197265625 L621.410888671875,182.78146362304688 L622.1632080078125,181.47593688964844 L622.671875,180.3512725830078 L622.9560546875,179.495849609375 L623.0482177734375,178.95973205566406 L622.9805908203125,178.76707458496094 L622.798828125,178.92361450195312 L622.5604248046875,179.4346923828125 L622.335205078125,180.30397033691406 L622.173095703125,181.48248291015625 L622.120849609375,182.8603515625 L622.2222900390625,184.3087921142578 L622.4876708984375,185.68801879882812 L622.8956298828125,186.900390625 L623.429931640625,187.8556365966797 L624.0447998046875,188.48277282714844 L624.6945190429688,188.74887084960938 L625.233154296875,188.76646423339844 L625.58251953125,188.671142578125 M630.1651611328125,179.7834014892578 L630.0963134765625,180.17955017089844 L629.994873046875,180.91546630859375 L629.8798828125,181.9630126953125 L629.771728515625,183.1705780029297 L629.69091796875,184.4258575439453 L629.638671875,185.59617614746094 L629.6041259765625,186.5732879638672 L629.6026000976562,187.27467346191406 L629.6348876953125,187.63250732421875 L629.674072265625,187.6115264892578 L629.740234375,187.22860717773438 L629.8334350585938,186.5045166015625 L629.972900390625,185.5037078857422 L630.1985473632812,184.3371124267578 L630.5418701171875,183.09568786621094 L631.0010986328125,181.85472106933594 L631.5946044921875,180.68157958984375 L632.3314208984375,179.61117553710938 L633.2171630859375,178.6900177001953 L634.2418212890625,177.97415161132812 L635.3706665039062,177.49395751953125 L636.5550537109375,177.254638671875 L637.739501953125,177.2299346923828 L638.9505615234375,177.40771484375 L640.1934814453125,177.758544921875 L641.4452514648438,178.23216247558594 L642.4613037109375,178.6724395751953 L643.1122436523438,178.97647094726562 M664.712890625,173.8273468017578 L664.6615600585938,173.84593200683594 L664.5189819335938,173.99703979492188 L664.2258911132812,174.38143920898438 L663.750244140625,175.07933044433594 L663.0773315429688,176.08656311035156 L662.2277221679688,177.35011291503906 L661.2373046875,178.81573486328125 L660.1832275390625,180.42034912109375 L659.124267578125,182.09591674804688 L658.144775390625,183.7940673828125 L657.3014526367188,185.4520263671875 L656.6419677734375,186.97543334960938 L656.1776123046875,188.2752227783203 L655.902587890625,189.25738525390625 L655.7682495117188,189.85548400878906 L655.726318359375,190.1260223388672 " fill="none" stroke="black" stroke-linecap="round" stroke-width="1" /><path d="M0,0 M358.363525390625,229.40383911132812 L358.36419677734375,229.56369018554688 L358.361083984375,229.96551513671875 L358.3703918457031,230.7215118408203 L358.3866882324219,231.88992309570312 L358.39837646484375,233.49176025390625 L358.3937072753906,235.48121643066406 L358.3464050292969,237.7728271484375 L358.2710266113281,240.25344848632812 L358.2064208984375,242.818359375 L358.1479797363281,245.35975646972656 L358.09185791015625,247.79367065429688 L358.02117919921875,250.001220703125 L357.9161682128906,251.8623504638672 L357.8171081542969,253.27459716796875 L357.7514953613281,254.20066833496094 L357.72161865234375,254.62754821777344 L357.7472839355469,254.5994415283203 L357.82159423828125,254.11898803710938 L357.959228515625,253.1856689453125 L358.2066345214844,251.81956481933594 L358.59796142578125,250.1212158203125 L359.1524658203125,248.20950317382812 L359.8988037109375,246.25306701660156 L360.816162109375,244.37887573242188 L361.91070556640625,242.67706298828125 L363.1609191894531,241.20184326171875 L364.5520324707031,240.02978515625 L366.03863525390625,239.22103881835938 L367.5596923828125,238.8507537841797 L369.0293273925781,238.94552612304688 L370.3974914550781,239.4998321533203 L371.5606384277344,240.45298767089844 L372.48834228515625,241.73876953125 L373.14898681640625,243.26925659179688 L373.53607177734375,244.95213317871094 L373.659912109375,246.6739501953125 L373.5325927734375,248.3349609375 L373.1218566894531,249.84959411621094 L372.4578552246094,251.1620330810547 L371.54290771484375,252.232421875 L370.4338073730469,253.03372192382812 L369.18408203125,253.54299926757812 L367.8493347167969,253.76136779785156 L366.4748840332031,253.73121643066406 L365.1217346191406,253.51438903808594 L363.82012939453125,253.16799926757812 L362.6451721191406,252.74188232421875 L361.66180419921875,252.24423217773438 L360.9367980957031,251.7009735107422 L360.4889221191406,251.1554412841797 L360.2789001464844,250.72421264648438 L360.21661376953125,250.4600372314453 M377.71502685546875,242.32334899902344 L377.6996765136719,242.5171356201172 L377.70477294921875,242.9211883544922 L377.7402648925781,243.5673370361328 L377.8053283691406,244.44210815429688 L377.8614501953125,245.54281616210938 L377.8940124511719,246.84136962890625 L377.89398193359375,248.28717041015625 L377.8851623535156,249.78988647460938 L377.886474609375,251.2139892578125 L377.90570068359375,252.4325714111328 L377.92633056640625,253.35231018066406 L377.95025634765625,253.9332275390625 L377.946533203125,254.167724609375 L377.91607666015625,254.0602264404297 L377.8661804199219,253.6011199951172 L377.8197021484375,252.78285217285156 L377.7987365722656,251.63735961914062 L377.832275390625,250.2593536376953 L377.9112854003906,248.7550811767578 L378.0173645019531,247.22669982910156 L378.12347412109375,245.75296020507812 L378.2349548339844,244.3848419189453 L378.34320068359375,243.1807403564453 L378.456298828125,242.18804931640625 L378.6107177734375,241.43357849121094 L378.8409729003906,240.90647888183594 L379.19287109375,240.57803344726562 L379.7346496582031,240.41148376464844 L380.50042724609375,240.378173828125 L381.4955139160156,240.4357452392578 L382.69989013671875,240.54739379882812 L384.05523681640625,240.66845703125 L385.47894287109375,240.77261352539062 L386.90399169921875,240.85183715820312 L388.2830505371094,240.9041748046875 L389.58209228515625,240.94192504882812 L390.7531433105469,240.9681854248047 L391.7377014160156,240.98348999023438 L392.4898986816406,240.99269104003906 L393.003662109375,241.00558471679688 L393.2976989746094,241.0248260498047 L393.4417724609375,241.11294555664062 L393.47918701171875,241.35003662109375 L393.4213562011719,241.81228637695312 L393.2895202636719,242.5599365234375 L393.10711669921875,243.61178588867188 L392.88037109375,244.91458129882812 L392.6409912109375,246.41123962402344 L392.41143798828125,248.0253448486328 L392.2200622558594,249.6432342529297 L392.0865173339844,251.1566162109375 L392.04180908203125,252.4335174560547 L392.07830810546875,253.3502655029297 L392.16876220703125,253.8539276123047 L392.2629089355469,254.0338897705078 L392.33404541015625,254.0264434814453 M392.9518737792969,228.6350860595703 L392.99871826171875,228.61122131347656 L393.0554504394531,228.56272888183594 L393.1058654785156,228.4823455810547 L393.14190673828125,228.40438842773438 L393.18426513671875,228.3758544921875 L393.2499084472656,228.42037963867188 L393.3228454589844,228.50390625 L393.3805236816406,228.58877563476562 M397.5308532714844,241.78536987304688 L397.54852294921875,242.61587524414062 L397.5788879394531,244.0010528564453 L397.610107421875,245.81263732910156 L397.6247253417969,247.72763061523438 L397.6073303222656,249.6260986328125 L397.5710754394531,251.37088012695312 L397.5125427246094,252.87060546875 L397.4507141113281,253.9957275390625 L397.39288330078125,254.64065551757812 L397.3373107910156,254.73231506347656 L397.283203125,254.241455078125 L397.2558898925781,253.16207885742188 L397.29827880859375,251.613525390625 L397.45184326171875,249.76312255859375 L397.7597351074219,247.78799438476562 L398.224609375,245.82550048828125 L398.8160400390625,243.95657348632812 L399.53009033203125,242.2247772216797 L400.3724365234375,240.70175170898438 L401.333251953125,239.46502685546875 L402.41461181640625,238.59335327148438 L403.571533203125,238.1354217529297 L404.72222900390625,238.1147003173828 L405.8316345214844,238.53514099121094 L406.8522644042969,239.3675537109375 L407.75921630859375,240.56175231933594 L408.53009033203125,242.03529357910156 L409.1414794921875,243.69703674316406 L409.5613708496094,245.44253540039062 L409.81256103515625,247.17237854003906 L409.93377685546875,248.78477478027344 L409.9921875,250.17405700683594 L410.0267639160156,251.24537658691406 L410.07269287109375,251.96597290039062 L410.11541748046875,252.3535614013672 L410.1453857421875,252.501708984375 M423.10003662109375,242.20477294921875 L422.9150085449219,241.890869140625 L422.54681396484375,241.41087341308594 L421.9661560058594,240.86770629882812 L421.19158935546875,240.43389892578125 L420.2421569824219,240.1832275390625 L419.1449890136719,240.18582153320312 L417.96221923828125,240.49436950683594 L416.77032470703125,241.14871215820312 L415.65216064453125,242.15548706054688 L414.6971740722656,243.46444702148438 L414.0089111328125,244.968994140625 L413.6827392578125,246.54286193847656 L413.7889404296875,248.04335021972656 L414.35107421875,249.30679321289062 L415.33984375,250.1905975341797 L416.6725158691406,250.5878143310547 L418.2301330566406,250.44981384277344 L419.9049072265625,249.81439208984375 L421.5700988769531,248.78160095214844 L423.0954284667969,247.4645233154297 L424.38018798828125,245.9931182861328 L425.3515625,244.48741149902344 L425.96710205078125,243.06924438476562 L426.2742004394531,241.87335205078125 L426.3624572753906,240.99081420898438 L426.31390380859375,240.4535675048828 L426.21783447265625,240.2704315185547 L426.1505126953125,240.4452667236328 L426.1321716308594,241.01885986328125 L426.19659423828125,242.06146240234375 L426.37689208984375,243.55972290039062 L426.67474365234375,245.4461212158203 L427.07757568359375,247.60887145996094 L427.5682373046875,249.9359130859375 L428.07232666015625,252.36373901367188 L428.5093994140625,254.84080505371094 L428.8027038574219,257.2795715332031 L428.8799133300781,259.582275390625 L428.6930847167969,261.6297607421875 L428.2553405761719,263.33746337890625 L427.58917236328125,264.6626281738281 L426.718017578125,265.5715026855469 L425.6908264160156,266.0676574707031 L424.54058837890625,266.1656188964844 L423.31304931640625,265.9005432128906 L422.08502197265625,265.3453369140625 L420.938232421875,264.5798034667969 L419.95367431640625,263.6126708984375 L419.21697998046875,262.4837646484375 L418.75537109375,261.2488098144531 L418.5337829589844,260.2009582519531 L418.4704284667969,259.515869140625 M440.287109375,238.17947387695312 L440.069580078125,238.03070068359375 L439.6467590332031,237.8533172607422 L438.9873352050781,237.74876403808594 L438.12127685546875,237.8364715576172 L437.0837097167969,238.15301513671875 L435.974365234375,238.7039031982422 L434.9085693359375,239.4400177001953 L434.0394592285156,240.32456970214844 L433.5059814453125,241.30950927734375 L433.40545654296875,242.32986450195312 L433.794677734375,243.33348083496094 L434.70941162109375,244.28970336914062 L436.09979248046875,245.166015625 L437.8778076171875,245.98231506347656 L439.8916015625,246.75692749023438 L441.9350891113281,247.49256896972656 L443.7898254394531,248.19920349121094 L445.2730407714844,248.8634490966797 L446.26043701171875,249.46395874023438 L446.7208251953125,250.018798828125 L446.645263671875,250.54391479492188 L446.06585693359375,251.0421142578125 L445.01104736328125,251.50839233398438 L443.5210266113281,251.88905334472656 L441.6925048828125,252.12838745117188 L439.6578674316406,252.20376586914062 L437.5560302734375,252.12033081054688 L435.5256042480469,251.89883422851562 L433.6831359863281,251.58558654785156 L432.1339416503906,251.22842407226562 L431.0597839355469,250.9258575439453 L430.4761962890625,250.73287963867188 M463.8889465332031,240.34609985351562 L463.8487548828125,240.2772216796875 L463.83392333984375,240.25506591796875 L463.8717956542969,240.39698791503906 L463.97186279296875,240.83554077148438 L464.111083984375,241.6354522705078 L464.2590026855469,242.76889038085938 L464.3982849121094,244.1463623046875 L464.5845947265625,245.66452026367188 L464.8785095214844,247.2030792236328 L465.33441162109375,248.64459228515625 L465.996826171875,249.8783416748047 L466.85711669921875,250.7828369140625 L467.899169921875,251.2766571044922 L469.0829162597656,251.31471252441406 L470.3504943847656,250.88037109375 L471.6412353515625,250.01327514648438 L472.8797607421875,248.7928009033203 L473.99371337890625,247.34225463867188 L474.9593200683594,245.81253051757812 L475.7403564453125,244.35281372070312 L476.3134460449219,243.0819091796875 L476.7013244628906,242.10287475585938 L476.92352294921875,241.44573974609375 L477.008056640625,241.12010192871094 L476.9920959472656,241.1069793701172 L476.88427734375,241.42250061035156 L476.67742919921875,242.1136932373047 L476.36822509765625,243.25181579589844 L475.96466064453125,244.83726501464844 L475.4657897949219,246.8413543701172 L474.87457275390625,249.1658172607422 L474.2106018066406,251.70555114746094 L473.513916015625,254.3621063232422 L472.82183837890625,257.0514221191406 L472.1995544433594,259.6510009765625 L471.70428466796875,262.0313720703125 L471.3685302734375,264.03656005859375 L471.20458984375,265.5412902832031 L471.19976806640625,266.4978332519531 L471.35296630859375,266.8260498046875 L471.6485290527344,266.51861572265625 L472.0771484375,265.6373291015625 L472.4935607910156,264.6279296875 L472.795166015625,263.836181640625 M486.3149719238281,240.2358856201172 L486.0617980957031,240.07327270507812 L485.60479736328125,239.88995361328125 L484.9303283691406,239.78543090820312 L484.11260986328125,239.90367126464844 L483.1746520996094,240.3053436279297 L482.1703796386719,241.0208740234375 L481.18414306640625,242.04110717773438 L480.3124694824219,243.33444213867188 L479.6453857421875,244.8148651123047 L479.2813415527344,246.3871612548828 L479.2677001953125,247.94236755371094 L479.62701416015625,249.367431640625 L480.3387756347656,250.5545196533203 L481.3591613769531,251.41200256347656 L482.6289367675781,251.85903930664062 L484.0664978027344,251.8603973388672 L485.57000732421875,251.4276885986328 L487.02886962890625,250.5969696044922 L488.3172607421875,249.43161010742188 L489.3589782714844,248.02206420898438 L490.106689453125,246.46743774414062 L490.5486755371094,244.8902130126953 L490.6828308105469,243.42149353027344 L490.5216064453125,242.15365600585938 L490.10498046875,241.1480255126953 L489.5274353027344,240.43557739257812 L488.89642333984375,239.99822998046875 L488.3564453125,239.80361938476562 L488.0,239.7997283935547 L487.85931396484375,239.911376953125 L487.8670654296875,240.0434112548828 L487.93646240234375,240.14268493652344 M495.79351806640625,238.77476501464844 L495.7329406738281,239.0363311767578 L495.6390686035156,239.6033172607422 L495.5174560546875,240.54444885253906 L495.39178466796875,241.820068359375 L495.2798767089844,243.34402465820312 L495.2360534667969,244.98973083496094 L495.3064880371094,246.6168212890625 L495.5436096191406,248.05943298339844 L495.96588134765625,249.18783569335938 L496.5605163574219,249.890380859375 L497.31549072265625,250.1031494140625 L498.2384338378906,249.8089599609375 L499.2839050292969,249.03289794921875 L500.41650390625,247.84683227539062 L501.5733642578125,246.3682861328125 L502.66363525390625,244.7364959716797 L503.63238525390625,243.10118103027344 L504.4614562988281,241.6060791015625 L505.10906982421875,240.35462951660156 L505.57086181640625,239.427001953125 L505.859375,238.82618713378906 L505.98590087890625,238.5255126953125 L506.003662109375,238.50181579589844 L505.98583984375,238.77267456054688 L505.9851379394531,239.3694305419922 L506.0252990722656,240.33070373535156 L506.1268310546875,241.5885772705078 L506.2646484375,243.03851318359375 L506.4330749511719,244.5657958984375 L506.63299560546875,246.06224060058594 L506.85101318359375,247.439453125 L507.0716552734375,248.65081787109375 L507.2936706542969,249.62954711914062 L507.4929504394531,250.34793090820312 L507.6429748535156,250.79043579101562 L507.7367858886719,251.001708984375 M532.192138671875,240.59713745117188 L531.879638671875,240.3040771484375 L531.3302001953125,239.8942108154297 L530.5333862304688,239.49252319335938 L529.54052734375,239.29574584960938 L528.3511962890625,239.40895080566406 L527.021484375,239.8950653076172 L525.6546630859375,240.75698852539062 L524.4041748046875,241.95054626464844 L523.3986206054688,243.37611389160156 L522.7454223632812,244.88990783691406 L522.5087890625,246.34617614746094 L522.7308959960938,247.59521484375 L523.4300537109375,248.49468994140625 L524.5528564453125,248.93089294433594 L526.005126953125,248.85971069335938 L527.6557006835938,248.29110717773438 L529.3399047851562,247.30633544921875 L530.924560546875,246.03704833984375 L532.31591796875,244.62857055664062 L533.43310546875,243.25209045410156 L534.2506103515625,242.0640869140625 L534.77734375,241.17108154296875 L535.0494995117188,240.6365203857422 L535.137451171875,240.4965362548828 L535.1259765625,240.77764892578125 L535.062744140625,241.51983642578125 L534.9823608398438,242.7296142578125 L534.9224853515625,244.3516845703125 L534.9012451171875,246.27503967285156 L534.94189453125,248.37025451660156 L535.064697265625,250.521484375 L535.2425537109375,252.6213836669922 L535.4318237304688,254.5691375732422 L535.5867919921875,256.2622375488281 L535.641845703125,257.6025390625 L535.542236328125,258.5458984375 L535.250732421875,259.1084899902344 L534.7232666015625,259.314697265625 L533.9407958984375,259.2085266113281 L532.9119262695312,258.83319091796875 L531.68701171875,258.2229919433594 L530.3310546875,257.4385986328125 L528.9373779296875,256.57958984375 L527.573486328125,255.67880249023438 L526.3206787109375,254.78155517578125 L525.2488403320312,253.927978515625 L524.49755859375,253.26124572753906 L524.083251953125,252.84664916992188 M539.2618408203125,238.99818420410156 L539.322998046875,239.36119079589844 L539.4551391601562,240.04541015625 L539.64892578125,241.05223083496094 L539.8689575195312,242.286376953125 L540.0607299804688,243.69964599609375 L540.183837890625,245.21401977539062 L540.2303466796875,246.730712890625 L540.2203369140625,248.11660766601562 L540.177734375,249.2457733154297 L540.134765625,250.02920532226562 L540.0908203125,250.4219970703125 L540.0451049804688,250.40652465820312 L539.9884033203125,249.96615600585938 L539.9330444335938,249.0824737548828 L539.8992919921875,247.81121826171875 L539.9229736328125,246.2608184814453 L540.0322265625,244.57366943359375 L540.25634765625,242.89122009277344 L540.6087646484375,241.31565856933594 L541.117431640625,239.89862060546875 L541.7994384765625,238.7140655517578 L542.6658935546875,237.80947875976562 L543.718017578125,237.21913146972656 L544.9179077148438,236.9410858154297 L546.2108154296875,236.94390869140625 L547.5484619140625,237.14944458007812 L548.8887939453125,237.49082946777344 L550.2147216796875,237.88539123535156 L551.4951782226562,238.26519775390625 L552.6544799804688,238.57798767089844 L553.5120849609375,238.78848266601562 L554.0062255859375,238.89266967773438 M553.5006103515625,244.1942596435547 L553.6641845703125,244.2131805419922 L554.05322265625,244.19039916992188 L554.7257080078125,244.070068359375 L555.663818359375,243.79481506347656 L556.8060913085938,243.3545684814453 L558.0870361328125,242.7624053955078 L559.40087890625,242.03921508789062 L560.6536865234375,241.21945190429688 L561.74267578125,240.34536743164062 L562.5692749023438,239.46058654785156 L563.04736328125,238.61363220214844 L563.1507568359375,237.85377502441406 L562.85595703125,237.2292022705078 L562.169677734375,236.79200744628906 L561.1419677734375,236.61526489257812 L559.8356323242188,236.75436401367188 L558.3379516601562,237.23028564453125 L556.789306640625,238.03025817871094 L555.3226318359375,239.10696411132812 L554.0528564453125,240.3941650390625 L553.0855712890625,241.8308563232422 L552.4661865234375,243.33746337890625 L552.2364501953125,244.83050537109375 L552.4326171875,246.2122039794922 L553.0567626953125,247.3927764892578 L554.098388671875,248.30654907226562 L555.5037841796875,248.92578125 L557.2501220703125,249.21511840820312 L559.2547607421875,249.19259643554688 L561.3582763671875,248.89910888671875 L563.07470703125,248.52902221679688 L564.1583251953125,248.2317657470703 M573.3587646484375,239.8244171142578 L573.1055908203125,239.5010223388672 L572.5860595703125,239.06826782226562 L571.7887573242188,238.69815063476562 L570.8017578125,238.6317901611328 L569.7044677734375,238.9578399658203 L568.578857421875,239.68727111816406 L567.502197265625,240.7490997314453 L566.540283203125,242.0517120361328 L565.7896728515625,243.49261474609375 L565.3424072265625,244.96405029296875 L565.252197265625,246.35647583007812 L565.541015625,247.56724548339844 L566.1793212890625,248.4944610595703 L567.1149291992188,249.06027221679688 L568.272216796875,249.21408081054688 L569.550537109375,248.93092346191406 L570.8480224609375,248.22215270996094 L572.070068359375,247.13592529296875 L573.1172485351562,245.7500457763672 L573.947998046875,244.1934814453125 L574.545166015625,242.60577392578125 L574.93359375,241.12596130371094 L575.1612548828125,239.86691284179688 L575.2911376953125,238.90223693847656 L575.3421630859375,238.25506591796875 L575.3399658203125,237.9425048828125 L575.3092041015625,237.9734649658203 L575.279296875,238.3809356689453 L575.27294921875,239.188720703125 L575.3226318359375,240.38096618652344 L575.4205932617188,241.8644256591797 L575.5869750976562,243.51385498046875 L575.8296508789062,245.16949462890625 L576.1617431640625,246.6964874267578 L576.5885009765625,247.9939422607422 L577.1290283203125,248.94300842285156 L577.75390625,249.45497131347656 L578.446533203125,249.52847290039062 L579.0301513671875,249.34898376464844 L579.41064453125,249.11334228515625 M586.039306640625,226.00491333007812 L586.0341796875,226.1265869140625 L586.0283203125,226.4930419921875 L586.037353515625,227.23081970214844 L586.036376953125,228.38380432128906 L585.9956665039062,229.91946411132812 L585.9057006835938,231.76458740234375 L585.758544921875,233.83084106445312 L585.561279296875,236.03208923339844 L585.3676147460938,238.3009796142578 L585.1858520507812,240.54527282714844 L585.0618896484375,242.6864776611328 L585.014892578125,244.62498474121094 L585.0360107421875,246.25888061523438 L585.0955810546875,247.50680541992188 L585.160888671875,248.29574584960938 L585.1964721679688,248.67466735839844 M581.6282958984375,239.99618530273438 L581.90185546875,239.97862243652344 L582.5247192382812,239.9461669921875 L583.5684204101562,239.90016174316406 L585.0045166015625,239.83486938476562 L586.7444458007812,239.736328125 L588.6602172851562,239.60662841796875 L590.6005859375,239.47052001953125 L592.414794921875,239.33811950683594 L593.9481811523438,239.22596740722656 L595.122802734375,239.12890625 L595.8623657226562,239.05262756347656 L596.2249755859375,239.0010223388672 M612.9063720703125,241.9766845703125 L612.8577880859375,242.07247924804688 L612.802978515625,242.34991455078125 L612.77783203125,242.897705078125 L612.8304443359375,243.76199340820312 L612.995361328125,244.94305419921875 L613.2822265625,246.4117431640625 L613.6802978515625,248.13864135742188 L614.1678466796875,250.0790557861328 L614.7099609375,252.18930053710938 L615.2598266601562,254.41546630859375 L615.7630615234375,256.6983947753906 L616.1455078125,258.9495544433594 L616.33056640625,261.0741271972656 L616.2695922851562,262.97344970703125 L615.9466552734375,264.5713806152344 L615.3692626953125,265.8145751953125 L614.5474853515625,266.6827697753906 L613.49755859375,267.1517333984375 L612.2525634765625,267.2226867675781 L610.8594970703125,266.8970947265625 L609.38427734375,266.1954040527344 L607.9140625,265.1457214355469 L606.528564453125,263.8211975097656 L605.313720703125,262.18548583984375 L604.3654174804688,260.28509521484375 L603.725830078125,258.19757080078125 L603.380126953125,256.421875 L603.2537841796875,255.24900817871094 M611.90576171875,231.58314514160156 L611.8993530273438,231.60202026367188 L611.9224853515625,231.6598358154297 L611.9635009765625,231.7335968017578 L612.010986328125,231.80029296875 M624.2320556640625,242.05149841308594 L623.9376831054688,241.81948852539062 L623.40869140625,241.4705352783203 L622.6522827148438,241.09584045410156 L621.7474365234375,240.84629821777344 L620.74853515625,240.82351684570312 L619.708740234375,241.09051513671875 L618.7095336914062,241.68251037597656 L617.8584594726562,242.58421325683594 L617.2490234375,243.742431640625 L616.945068359375,245.06028747558594 L616.9922485351562,246.436279296875 L617.3682861328125,247.73898315429688 L618.0547485351562,248.8509521484375 L619.0103759765625,249.66226196289062 L620.20654296875,250.09881591796875 L621.585693359375,250.1205291748047 L623.0723876953125,249.72959899902344 L624.5377197265625,248.96182250976562 L625.85546875,247.89215087890625 L626.892333984375,246.63015747070312 L627.5687255859375,245.29757690429688 L627.833251953125,244.0059356689453 L627.7130737304688,242.8419952392578 L627.248291015625,241.86843872070312 L626.54541015625,241.11863708496094 L625.7193603515625,240.60269165039062 L625.0172119140625,240.30862426757812 L624.56201171875,240.18214416503906 M631.6865234375,239.83680725097656 L631.6343383789062,240.0976104736328 L631.5706787109375,240.5711212158203 L631.5224609375,241.24729919433594 L631.5286254882812,242.05662536621094 L631.60791015625,242.97218322753906 L631.7601318359375,243.93052673339844 L631.98583984375,244.86781311035156 L632.294189453125,245.6995086669922 L632.693603515625,246.34046936035156 L633.1918334960938,246.72520446777344 L633.7722778320312,246.80010986328125 L634.4154052734375,246.51573181152344 L635.1036376953125,245.8669891357422 L635.82861328125,244.89706420898438 L636.6018676757812,243.70245361328125 L637.4193115234375,242.4289093017578 L638.215087890625,241.23812866210938 L638.9095458984375,240.2490692138672 L639.4144897460938,239.552001953125 L639.697265625,239.21115112304688 L639.7864990234375,239.2728271484375 L639.7584228515625,239.79531860351562 L639.68408203125,240.82740783691406 L639.6258544921875,242.3494110107422 L639.6029052734375,244.29861450195312 L639.619140625,246.5821533203125 L639.6551513671875,249.0904998779297 L639.6798095703125,251.72103881835938 L639.6625366210938,254.3618621826172 L639.56982421875,256.8799133300781 L639.3622436523438,259.146484375 L638.994384765625,261.0614318847656 L638.43994140625,262.5728759765625 L637.670166015625,263.6825256347656 L636.6734619140625,264.4068298339844 L635.4480590820312,264.7720031738281 L634.0222778320312,264.8047790527344 L632.4364013671875,264.5377502441406 L630.8013916015625,264.0351257324219 L629.25244140625,263.32489013671875 L627.9343872070312,262.4410400390625 L626.95458984375,261.4406433105469 L626.369140625,260.576904296875 L626.1043701171875,259.9988708496094 M649.3005981445312,225.0 L649.3082275390625,225.44039916992188 L649.314697265625,226.21871948242188 L649.3236694335938,227.29702758789062 L649.3331909179688,228.51498413085938 L649.3370361328125,229.8247528076172 L649.3304443359375,231.19931030273438 L649.3040161132812,232.656005859375 L649.2535400390625,234.1951904296875 L649.19921875,235.7994842529297 L649.15234375,237.4185791015625 L649.1060791015625,239.00108337402344 L649.0631103515625,240.4961700439453 L649.018310546875,241.84361267089844 L648.98388671875,242.9788360595703 L648.9688720703125,243.7696075439453 L648.9715576171875,244.20082092285156 M647.6358642578125,255.2757110595703 L647.6318969726562,255.27301025390625 L647.634765625,255.23887634277344 L647.641845703125,255.18716430664062 L647.6505126953125,255.1317138671875 M650.0958251953125,254.08795166015625 L650.0855712890625,254.05628967285156 L650.0704345703125,253.97744750976562 L650.05517578125,253.88218688964844 L650.044677734375,253.8013153076172 M653.213134765625,253.3097381591797 L653.1780395507812,253.3556365966797 L653.151123046875,253.38912963867188 L653.1734008789062,253.3521728515625 L653.3023071289062,253.1670379638672 L653.5828857421875,252.77911376953125 L654.033203125,252.1698455810547 L654.6328735351562,251.37289428710938 L655.32470703125,250.43267822265625 L656.036865234375,249.41534423828125 L656.70947265625,248.38365173339844 L657.3268432617188,247.37881469726562 L657.880859375,246.4207000732422 L658.3675537109375,245.54393005371094 L658.7760009765625,244.74942016601562 L659.0882568359375,244.04385375976562 L659.2945556640625,243.46580505371094 L659.40234375,243.03729248046875 L659.42529296875,242.75502014160156 L659.3900146484375,242.60894775390625 L659.3045654296875,242.5743408203125 L659.1639404296875,242.64166259765625 L658.9644775390625,242.8872528076172 L658.6990966796875,243.38516235351562 L658.3814086914062,244.1839599609375 L658.05224609375,245.26318359375 L657.7430419921875,246.55142211914062 L657.4959716796875,247.93020629882812 L657.3505859375,249.3064422607422 L657.345703125,250.5780029296875 L657.5145263671875,251.65354919433594 L657.8985595703125,252.45089721679688 L658.513671875,252.90748596191406 L659.3665771484375,252.97238159179688 L660.447509765625,252.62203979492188 L661.8721923828125,251.68991088867188 L663.219970703125,250.6016387939453 L664.2156982421875,249.69744873046875 " fill="none" stroke="black" stroke-linecap="round" stroke-width="1" /></svg>